<?xml version="1.0" encoding="UTF-8" standalone="no"?>
<svg
   xmlns:dc="http://purl.org/dc/elements/1.1/"
   xmlns:cc="http://creativecommons.org/ns#"
   xmlns:rdf="http://www.w3.org/1999/02/22-rdf-syntax-ns#"
   xmlns:svg="http://www.w3.org/2000/svg"
   xmlns="http://www.w3.org/2000/svg"
   id="svg2064"
   style="clip-rule:evenodd;fill-rule:evenodd;stroke-linejoin:round;stroke-miterlimit:1.41420996"
   xml:space="preserve"
   version="1.1"
   viewBox="0 0 779.60175 779.60175"
   height="779.60175"
   width="779.60175"><metadata
   id="metadata2070"><rdf:RDF><cc:Work
       rdf:about=""><dc:format>image/svg+xml</dc:format><dc:type
         rdf:resource="http://purl.org/dc/dcmitype/StillImage" /><dc:title></dc:title></cc:Work></rdf:RDF></metadata><defs
   id="defs2068" />
    <g
   id="g2062"
   transform="translate(-150.19884,8.56679)">
        
        <g
   id="g2004"
   transform="matrix(1.28803,0,0,1.23398,-1588.5134,-1472.0273)">
            <path
   id="path2002"
   style="fill:#88a2aa;fill-rule:nonzero"
   d="m 1645.12,1244.82 -277.47,161.39 c -9.6,5.58 -5.75,20.66 5.28,20.66 h 554.95 c 11.03,0 14.87,-15.08 5.28,-20.66 l -277.49,-161.39 c -3.27,-1.9 -7.27,-1.9 -10.55,0" />
        </g>
        <g
   id="g2008"
   transform="matrix(1.28803,0,0,1.33203,-1588.5134,-899.2393)">
            <rect
   id="rect2006"
   style="fill:#404852"
   height="250.38901"
   width="42.576"
   y="933.06403"
   x="1401.91" />
        </g>
        <g
   id="g2012"
   transform="matrix(1.28803,0,0,1.33203,-1588.5134,-899.2393)">
            <rect
   id="rect2010"
   style="fill:#404852"
   height="250.38901"
   width="42.576"
   y="933.06403"
   x="1492.79" />
        </g>
        <g
   id="g2016"
   transform="matrix(1.28803,0,0,1.33203,-1588.5134,-899.2393)">
            <rect
   id="rect2014"
   style="fill:#404852"
   height="250.38901"
   width="42.576"
   y="933.06403"
   x="1583.67" />
        </g>
        <g
   id="g2020"
   transform="matrix(1.28803,0,0,1.33203,-1588.5134,-899.2393)">
            <rect
   id="rect2018"
   style="fill:#88a2aa"
   height="250.38901"
   width="42.576"
   y="933.06403"
   x="1674.5601" />
        </g>
        <g
   id="g2024"
   transform="matrix(1.28803,0,0,1.33203,-1588.5134,-899.2393)">
            <rect
   id="rect2022"
   style="fill:#88a2aa"
   height="250.38901"
   width="42.576"
   y="933.06403"
   x="1765.4301" />
        </g>
        <g
   id="g2028"
   transform="matrix(1.28803,0,0,1.33203,-1588.5134,-899.2393)">
            <rect
   id="rect2026"
   style="fill:#88a2aa"
   height="250.38901"
   width="42.576"
   y="933.06403"
   x="1856.3101" />
        </g>
        <g
   id="g2032"
   transform="matrix(1.28803,0,0,0.581776,-1588.5134,174.5167)">
            <path
   id="path2030"
   style="fill:#88a2aa;fill-rule:nonzero"
   d="m 1936.46,918.309 h -572.12 c -8.96,0 -16.29,-7.55 -16.29,-16.761 0,-9.234 7.33,-16.773 16.29,-16.773 h 572.12 c 8.96,0 16.29,7.539 16.29,16.773 0,9.211 -7.33,16.761 -16.29,16.761" />
        </g>
        <g
   id="g2036"
   transform="matrix(1.28803,0,0,1.33203,-1588.5134,-899.2393)">
            <rect
   id="rect2034"
   style="fill:#d0e0dc"
   height="250.38901"
   width="42.576"
   y="933.06403"
   x="1401.91" />
        </g>
        <g
   id="g2040"
   transform="matrix(1.28803,0,0,1.33203,-1588.5134,-899.2393)">
            <rect
   id="rect2038"
   style="fill:#d0e0dc"
   height="250.38901"
   width="42.576"
   y="933.06403"
   x="1492.79" />
        </g>
        <g
   id="g2044"
   transform="matrix(1.28803,0,0,1.33203,-1588.5134,-899.2393)">
            <rect
   id="rect2042"
   style="fill:#d0e0dc"
   height="250.38901"
   width="42.576"
   y="933.06403"
   x="1583.67" />
        </g>
        <g
   id="g2048"
   transform="matrix(1.28803,0,0,1.23398,-1588.5134,-1471.3973)">
            <path
   id="path2046"
   style="fill:#d0e0dc;fill-rule:nonzero"
   d="m 1650.1,1242.92 c -1.72,0.05 -3.43,0.5 -4.98,1.39 l -277.47,161.39 c -9.61,5.58 -5.76,20.66 5.27,20.66 h 277.18 z" />
        </g>
        <g
   id="g2052"
   transform="matrix(1.28803,0,0,0.581776,-1588.5134,174.5187)">
            <path
   id="path2050"
   style="fill:#d0e0dc;fill-rule:nonzero"
   d="m 1650.1,884.773 h -285.76 c -8.96,0 -16.29,7.539 -16.29,16.762 0,9.222 7.33,16.772 16.29,16.772 h 285.76 z" />
        </g>
        <g
   id="g2056"
   transform="matrix(1.28803,0,0,0.581776,-1589.2434,-202.6433)">
            <path
   id="path2054"
   style="fill:#88a2aa;fill-rule:nonzero"
   d="m 1936.46,918.309 h -572.12 c -8.96,0 -16.29,-7.55 -16.29,-16.761 0,-9.234 7.33,-16.773 16.29,-16.773 h 572.12 c 8.96,0 16.29,7.539 16.29,16.773 0,9.211 -7.33,16.761 -16.29,16.761" />
        </g>
        <g
   id="g2060"
   transform="matrix(1.28803,0,0,0.581776,-1589.2434,-202.6413)">
            <path
   id="path2058"
   style="fill:#d0e0dc;fill-rule:nonzero"
   d="m 1650.1,884.773 h -285.76 c -8.96,0 -16.29,7.539 -16.29,16.762 0,9.222 7.33,16.772 16.29,16.772 h 285.76 z" />
        </g>
    </g>
</svg>