<svg clip-rule="evenodd" fill-rule="evenodd" stroke-linejoin="round" stroke-miterlimit="1.41421" viewBox="0 0 780 306" xmlns="http://www.w3.org/2000/svg"><g fill="#88a2aa"><path d="m0 18.539c0 3.18.18 5.1 1.2 6.54 1.32 1.86 3.6 2.46 7.379 2.46 11.64 0 16.859-7.62 16.859-18.779 0-6.6-3.179-17.76-18.898-17.76-3.54 0-5.46.48-5.94.841m-5.52 5.279c0-4.2-.3-5.46-2.82-5.819l-1.32-.181c-.48-.3-.54-1.26.06-1.5 5.1-.3 9.96-.479 15.06-.479 5.04 0 9.299.36 13.199 1.799 8.099 2.941 12.179 9.78 12.179 17.7 0 7.62-3.66 14.159-10.499 17.879-3.9 2.1-8.82 2.879-13.439 2.879-3.84 0-7.68-.479-9.78-.479-2.52 0-4.68.059-7.499.18-.361-.18-.481-1.14-.12-1.5l1.379-.18c3.48-.48 3.6-1.2 3.6-7.5z" fill-rule="nonzero" transform="matrix(4.16667 0 0 4.16667 42.1546 58.2471)"/><path d="m0-10.679c4.439 0 5.76-.24 6.239-.6.181-.12.361-.36.361-1.14 0-1.68-1.14-3.78-4.621-3.78-3.539 0-6.599 3.24-6.659 5.22 0 .12 0 .3.42.3zm-3.72 1.8c-1.56 0-1.62.12-1.62 1.62 0 6.059 3.54 11.22 9.96 11.22 1.98 0 3.659-.601 5.52-2.941.599-.179 1.019.18 1.08.72-1.981 4.08-6.3 5.58-9.42 5.58-3.9 0-6.96-1.68-8.699-3.96-1.8-2.34-2.521-5.159-2.521-7.8 0-7.379 4.86-13.559 12.06-13.559 5.16 0 8.519 3.54 8.519 7.14 0 .84-.119 1.32-.239 1.56-.181.36-1.021.42-3.54.42z" fill-rule="nonzero" transform="matrix(4.16667 0 0 4.16667 231.156 151.742)"/><path d="m0 .48c-1.02 0-1.02.12-1.02 1.74v12.659c0 4.321.121 5.04 2.281 5.22l2.159.18c.42.301.301 1.32-.12 1.5-2.699-.12-4.44-.18-6.539-.18-2.16 0-3.96.06-5.76.18-.42-.18-.54-1.199-.12-1.5l1.38-.18c2.219-.3 2.28-.899 2.28-5.22v-12.659c0-1.62 0-1.74-1.2-1.74h-2.101c-.359-.24-.42-.78-.179-1.14l2.58-1.259c.48-.241.9-.601.9-1.201 0-3.48.42-7.2 1.859-10.559 1.5-3.42 4.861-7.62 10.8-7.62 3.18 0 5.88 1.44 5.88 3.599 0 1.201-1.141 2.16-2.28 2.16-.66 0-1.02-.24-1.44-.719-1.14-1.321-2.82-2.64-4.799-2.64-1.861 0-3.361 1.14-4.26 3.3-1.08 2.76-1.321 7.14-1.321 10.14v1.739c0 1.62 0 1.68 1.02 1.68h6.84c.66.6.24 2.28-.42 2.52z" fill-rule="nonzero" transform="matrix(4.16667 0 0 4.16667 328.654 88.7458)"/><path d="m0-10.679c4.439 0 5.76-.24 6.24-.6.18-.12.36-.36.36-1.14 0-1.68-1.14-3.78-4.621-3.78-3.539 0-6.599 3.24-6.659 5.22 0 .12 0 .3.42.3zm-3.72 1.8c-1.559 0-1.62.12-1.62 1.62 0 6.059 3.54 11.22 9.96 11.22 1.98 0 3.659-.601 5.52-2.941.599-.179 1.019.18 1.08.72-1.981 4.08-6.3 5.58-9.42 5.58-3.9 0-6.96-1.68-8.699-3.96-1.8-2.34-2.521-5.159-2.521-7.8 0-7.379 4.86-13.559 12.06-13.559 5.16 0 8.519 3.54 8.519 7.14 0 .84-.12 1.32-.239 1.56-.181.36-1.021.42-3.54.42z" fill-rule="nonzero" transform="matrix(4.16667 0 0 4.16667 402.653 151.742)"/><path d="m0-9.299c0-2.34 0-2.64-1.62-3.72l-.54-.359c-.24-.24-.24-.9.06-1.08 1.38-.481 4.8-2.04 5.999-2.941.241 0 .54.121.661.42-.121 1.381-.121 2.281-.121 2.821 0 .36.241.66.661.66 2.519-1.561 5.339-3.061 8.399-3.061 4.98 0 7.02 3.42 7.02 7.441v10.319c0 4.32.12 4.92 2.28 5.22l1.32.179c.42.301.3 1.321-.12 1.5-1.8-.12-3.54-.179-5.64-.179-2.16 0-3.96.059-5.58.179-.42-.179-.54-1.199-.12-1.5l1.141-.179c2.22-.361 2.279-.9 2.279-5.22v-8.939c0-3.42-1.559-5.94-5.64-5.94-2.28 0-4.259.959-5.099 2.1-.78 1.019-.901 1.859-.901 3.599v9.18c0 4.32.121 4.859 2.281 5.22l1.08.179c.42.301.3 1.321-.12 1.5-1.62-.12-3.361-.179-5.46-.179-2.16 0-3.96.059-5.64.179-.42-.179-.54-1.199-.12-1.5l1.26-.179c2.219-.3 2.28-.9 2.28-5.22z" fill-rule="nonzero" transform="matrix(4.16667 0 0 4.16667 478.153 145.74)"/><path d="m0-23.278c.479.42.899 1.38.899 2.399 0 1.08-.599 2.221-1.319 2.221-.301 0-.601-.12-.841-.42-1.319-1.62-3.539-3.18-5.999-3.18-4.2 0-8.28 3.299-8.28 9.66 0 4.679 3.24 10.259 9.66 10.259 3.48 0 5.279-1.56 6.659-3.6.481-.119 1.021.301 1.08.84-2.04 4.44-6.54 6.12-10.019 6.12-3.18 0-6.12-1.02-8.22-3.06-2.099-2.04-3.479-4.98-3.479-8.88 0-6.479 4.559-13.38 14.519-13.38 1.38 0 3.72.301 5.34 1.021" fill-rule="nonzero" transform="matrix(4.16667 0 0 4.16667 676.652 177.988)"/><path d="m0-10.679c4.439 0 5.76-.24 6.239-.6.181-.12.361-.36.361-1.14 0-1.68-1.14-3.78-4.621-3.78-3.539 0-6.599 3.24-6.659 5.22 0 .12 0 .3.42.3zm-3.72 1.8c-1.56 0-1.62.12-1.62 1.62 0 6.059 3.54 11.22 9.96 11.22 1.98 0 3.659-.601 5.52-2.941.599-.179 1.019.18 1.08.72-1.981 4.08-6.3 5.58-9.42 5.58-3.9 0-6.96-1.68-8.699-3.96-1.8-2.34-2.521-5.159-2.521-7.8 0-7.379 4.86-13.559 12.06-13.559 5.16 0 8.519 3.54 8.519 7.14 0 .84-.119 1.32-.239 1.56-.181.36-1.021.42-3.54.42z" fill-rule="nonzero" transform="matrix(4.16667 0 0 4.16667 732.897 151.742)"/><path d="m0-5.34c0-1.59-.029-1.845-.915-1.92l-.375-.03c-.09-.06-.06-.33.03-.375.75.03 1.26.045 1.89.045.6 0 1.11-.015 1.86-.045.09.045.12.315.031.375l-.375.03c-.885.075-.916.33-.916 1.92v5.339c0 1.591.031 1.801.916 1.906l.375.045c.089.06.059.33-.031.375-.75-.031-1.26-.045-1.86-.045-.63 0-1.14.014-1.89.045-.09-.045-.12-.286-.03-.375l.375-.045c.886-.105.915-.315.915-1.906z" fill-rule="nonzero" transform="matrix(4.16667 0 0 4.16667 416.15 46.9358)"/><path d="m0-2.325c0-.585 0-.66-.405-.93l-.135-.09c-.06-.06-.06-.225.015-.27.345-.12 1.2-.51 1.5-.735.06 0 .135.03.165.105-.03.345-.03.57-.03.705 0 .09.06.165.164.165.631-.39 1.335-.765 2.101-.765 1.245 0 1.755.855 1.755 1.86v2.58c0 1.08.03 1.23.569 1.305l.33.045c.106.075.075.33-.029.375-.45-.03-.886-.045-1.41-.045-.54 0-.99.015-1.396.045-.104-.045-.134-.3-.029-.375l.285-.045c.555-.09.57-.225.57-1.305v-2.235c0-.855-.39-1.485-1.411-1.485-.569 0-1.064.24-1.274.525-.195.255-.225.465-.225.9v2.295c0 1.08.03 1.215.57 1.305l.27.045c.105.075.074.33-.03.375-.405-.03-.84-.045-1.365-.045-.54 0-.991.015-1.41.045-.105-.045-.135-.3-.03-.375l.315-.045c.555-.075.57-.225.57-1.305z" fill-rule="nonzero" transform="matrix(4.16667 0 0 4.16667 434.651 48.1833)"/><path d="m0 5.34c0 1.605.09 1.845.9 1.905l.57.045c.09.09.06.33-.03.375-.93-.03-1.44-.045-2.04-.045-.629 0-1.17.015-1.964.045-.091-.045-.121-.285-.031-.375l.465-.045c.87-.09.901-.3.901-1.905v-.765c0-.825-.045-1.02-.481-1.86l-1.769-3.45c-.511-.989-.736-1.065-1.186-1.139l-.42-.076c-.09-.105-.075-.314.03-.375.48.031 1.02.045 1.741.045.689 0 1.229-.014 1.604-.045.135.045.135.286.045.375l-.194.031c-.526.074-.631.15-.631.27 0 .15.39 1.005.466 1.155.554 1.109 1.109 2.294 1.694 3.329.465-.795.96-1.664 1.41-2.535.42-.779.975-1.799.975-1.98 0-.089-.27-.194-.63-.239l-.27-.031c-.105-.105-.09-.314.03-.375.54.031.975.045 1.44.045s.885-.014 1.395-.045c.12.076.135.286.03.375l-.42.076c-.78.134-1.23 1.08-1.98 2.369l-.945 1.636c-.66 1.139-.705 1.274-.705 2.429z" fill-rule="nonzero" transform="matrix(4.16667 0 0 4.16667 497.025 24.6829)"/><path d="m0-5.43c-.99 0-1.726.945-1.726 2.595 0 1.365.616 2.835 1.936 2.835 1.319 0 1.725-1.38 1.725-2.535 0-1.275-.51-2.895-1.935-2.895m3.225 2.655c0 1.875-1.29 3.225-3.165 3.225-1.725 0-3.075-1.215-3.075-3.09 0-1.89 1.425-3.24 3.195-3.24 1.679 0 3.045 1.26 3.045 3.105" fill-rule="nonzero" transform="matrix(4.16667 0 0 4.16667 520.776 55.4346)"/><path d="m0 1.35c0 1.035.255 1.725 1.395 1.725.405 0 .885-.165 1.214-.45.196-.18.301-.405.301-.87v-2.46c0-.975-.105-1.005-.556-1.185l-.194-.075c-.105-.06-.105-.27.015-.33.599-.015 1.425-.12 1.755-.27.075.015.12.045.134.105-.029.285-.044.75-.044 1.305v2.52c0 1.185.044 1.635.464 1.635.181 0 .375-.03.585-.075.091.075.106.375-.014.435-.585.12-1.455.27-1.965.555-.075 0-.151-.045-.18-.105v-.615c0-.135-.045-.21-.136-.21-.449.285-1.184.78-2.069.78-1.32 0-1.815-.66-1.815-1.875v-2.505c0-.945 0-1.08-.45-1.275l-.18-.075c-.09-.075-.075-.285.03-.33.69-.015 1.275-.15 1.605-.27.09.015.135.045.15.105-.03.255-.045.57-.045 1.305z" fill-rule="nonzero" transform="matrix(4.16667 0 0 4.16667 546.337 41.6213)"/><path d="m0-2.325c0-.585 0-.66-.404-.93l-.136-.09c-.06-.06-.06-.225.016-.27.344-.12 1.139-.51 1.514-.735.075.015.12.046.12.105v.87c0 .075.015.12.045.135.526-.435 1.095-.9 1.651-.9.375 0 .674.24.674.6 0 .495-.405.69-.645.69-.149 0-.225-.045-.33-.105-.225-.15-.449-.24-.659-.24-.241 0-.421.135-.54.3-.151.21-.196.645-.196 1.155v2.04c0 1.08.031 1.26.6 1.305l.54.045c.105.075.075.33-.029.375-.705-.03-1.141-.045-1.665-.045-.54 0-.991.015-1.38.045-.106-.045-.136-.3-.03-.375l.285-.045c.554-.09.569-.225.569-1.305z" fill-rule="nonzero" transform="matrix(4.16667 0 0 4.16667 574.524 48.1833)"/></g><path d="m25.273 98.196h186.777v4h-186.777z" fill="#d0dfdc" transform="matrix(-4.16667 0 0 4.16667 884.247 -207.934)"/><path d="m0 21.321h2.827l-21.32-21.321-21.322 21.321h5.656l15.665-15.665 15.664 15.665h2.829l-18.493-18.493z" fill="#d0dfdc" fill-rule="nonzero" transform="matrix(4.16667 0 0 4.16667 466.882 216.74)"/></svg>