<?xml version="1.0" encoding="UTF-8" standalone="no"?>
<!DOCTYPE svg PUBLIC "-//W3C//DTD SVG 1.1//EN" "http://www.w3.org/Graphics/SVG/1.1/DTD/svg11.dtd">
<svg width="100%" height="100%" viewBox="0 0 692 773" version="1.1" xmlns="http://www.w3.org/2000/svg" xmlns:xlink="http://www.w3.org/1999/xlink" xml:space="preserve" xmlns:serif="http://www.serif.com/" style="fill-rule:evenodd;clip-rule:evenodd;stroke-linejoin:round;stroke-miterlimit:1.41421;">
    <g transform="matrix(1.92352,0,0,1.92352,-1280.86,-1547.5)">
        <g transform="matrix(0.449368,0,0,0.433034,595.212,812.461)">
            <g transform="matrix(2.33236,0,0,2.30929,-180.93,-971.259)">
                <rect x="145.012" y="746.432" width="6.912" height="67.968" style="fill:rgb(136,162,170);fill-rule:nonzero;"/>
            </g>
            <g transform="matrix(2.33236,0,0,2.30929,-180.93,-971.259)">
                <path d="M243.028,814.4L236.116,814.4L236.116,785.12L210.676,746.432L219.316,746.432L239.572,778.496L259.828,746.432L268.468,746.432L243.028,785.12L243.028,814.4Z" style="fill:rgb(136,162,170);fill-rule:nonzero;"/>
            </g>
            <g transform="matrix(2.33236,0,0,2.30929,-180.93,-971.259)">
                <path d="M333.172,808.064L346.612,808.064C351.796,808.064 356.292,807.28 360.1,805.712C363.908,804.144 367.076,802.064 369.604,799.472C372.132,796.88 374.004,793.936 375.22,790.64C376.436,787.344 377.044,783.936 377.044,780.416C377.044,776.896 376.436,773.488 375.22,770.192C374.004,766.896 372.132,763.952 369.604,761.36C367.076,758.768 363.908,756.688 360.1,755.12C356.292,753.552 351.796,752.768 346.612,752.768L333.172,752.768L333.172,808.064ZM326.26,746.432L348.82,746.432C353.044,746.432 357.284,747.136 361.54,748.544C365.796,749.952 369.636,752.08 373.06,754.928C376.484,757.776 379.252,761.328 381.364,765.584C383.476,769.84 384.532,774.784 384.532,780.416C384.532,786.112 383.476,791.072 381.364,795.296C379.252,799.52 376.484,803.056 373.06,805.904C369.636,808.752 365.796,810.88 361.54,812.288C357.284,813.696 353.044,814.4 348.82,814.4L326.26,814.4L326.26,746.432Z" style="fill:rgb(208,224,220);fill-rule:nonzero;"/>
            </g>
            <g transform="matrix(2.33236,0,0,2.30929,-180.93,-971.259)">
                <path d="M456.148,808.064L487.828,808.064L487.828,814.4L449.236,814.4L449.236,746.432L456.148,746.432L456.148,808.064Z" style="fill:rgb(208,224,220);fill-rule:nonzero;"/>
            </g>
        </g>
        <g>
            <g transform="matrix(5.78675,0,0,5.95619,842.802,898.909)">
                <path d="M0,-15.724L-24.928,-1.637C-25.791,-1.15 -25.445,0.166 -24.454,0.166L25.403,0.166C26.394,0.166 26.739,-1.15 25.877,-1.637L0.948,-15.724C0.654,-15.89 0.294,-15.89 0,-15.724" style="fill:rgb(136,162,170);fill-rule:nonzero;"/>
            </g>
            <g transform="matrix(5.78675,0,0,5.95619,994.263,906.868)">
                <path d="M0,2.927L-51.399,2.927C-52.204,2.927 -52.863,2.269 -52.863,1.464C-52.863,0.658 -52.204,0 -51.399,0L0,0C0.805,0 1.463,0.658 1.463,1.464C1.463,2.269 0.805,2.927 0,2.927" style="fill:rgb(136,162,170);fill-rule:nonzero;"/>
            </g>
            <g transform="matrix(-5.78675,0,0,5.95619,1355.57,-617.438)">
                <rect x="106.636" y="259.94" width="3.825" height="21.855" style="fill:rgb(64,72,82);"/>
            </g>
            <g transform="matrix(-5.78675,0,0,5.95619,1450.06,-617.438)">
                <rect x="114.8" y="259.94" width="3.825" height="21.855" style="fill:rgb(64,72,82);"/>
            </g>
            <g transform="matrix(-5.78675,0,0,5.95619,1544.56,-617.438)">
                <rect x="122.965" y="259.94" width="3.825" height="21.855" style="fill:rgb(64,72,82);"/>
            </g>
            <g transform="matrix(-5.78675,0,0,5.95619,1639.05,-617.438)">
                <rect x="131.13" y="259.94" width="3.825" height="21.855" style="fill:rgb(136,162,170);"/>
            </g>
            <g transform="matrix(-5.78675,0,0,5.95619,1733.54,-617.438)">
                <rect x="139.294" y="259.94" width="3.825" height="21.855" style="fill:rgb(136,162,170);"/>
            </g>
            <g transform="matrix(-5.78675,0,0,5.95619,1828.04,-617.438)">
                <rect x="147.459" y="259.94" width="3.825" height="21.855" style="fill:rgb(136,162,170);"/>
            </g>
            <g transform="matrix(5.78675,0,0,5.95619,994.263,1068.66)">
                <path d="M0,2.927L-51.399,2.927C-52.204,2.927 -52.863,2.268 -52.863,1.464C-52.863,0.658 -52.204,0 -51.399,0L0,0C0.805,0 1.463,0.658 1.463,1.464C1.463,2.268 0.805,2.927 0,2.927" style="fill:rgb(136,162,170);fill-rule:nonzero;"/>
            </g>
            <g transform="matrix(5.78675,0,0,5.95619,1016.74,1096.55)">
                <path d="M0,2.927L-59.166,2.927C-59.97,2.927 -60.628,2.269 -60.628,1.465L-60.628,1.462C-60.628,0.658 -59.97,0 -59.166,0L0,0C0.804,0 1.462,0.658 1.462,1.462L1.462,1.465C1.462,2.269 0.804,2.927 0,2.927" style="fill:rgb(136,162,170);fill-rule:nonzero;"/>
            </g>
            <g transform="matrix(-5.78675,0,0,5.95619,1355.57,-617.438)">
                <rect x="106.636" y="259.94" width="3.825" height="21.855" style="fill:rgb(208,224,220);"/>
            </g>
            <g transform="matrix(-5.78675,0,0,5.95619,1450.06,-617.438)">
                <rect x="114.8" y="259.94" width="3.825" height="21.855" style="fill:rgb(208,224,220);"/>
            </g>
            <g transform="matrix(-5.78675,0,0,5.95619,1544.56,-617.438)">
                <rect x="122.965" y="259.94" width="3.825" height="21.855" style="fill:rgb(208,224,220);"/>
            </g>
            <g transform="matrix(5.78675,0,0,5.95619,845.387,899.897)">
                <path d="M0,-16.011C-0.154,-16.007 -0.308,-15.968 -0.447,-15.89L-25.375,-1.803C-26.238,-1.316 -25.892,0 -24.901,0L0,0L0,-16.011Z" style="fill:rgb(208,224,220);fill-rule:nonzero;"/>
            </g>
            <g transform="matrix(5.78675,0,0,5.95619,845.387,924.304)">
                <path d="M0,-2.927L-25.672,-2.927C-26.477,-2.927 -27.136,-2.269 -27.136,-1.464C-27.136,-0.658 -26.477,0 -25.672,0L0,0L0,-2.927Z" style="fill:rgb(208,224,220);fill-rule:nonzero;"/>
            </g>
            <g transform="matrix(5.78675,0,0,5.95619,845.387,1086.09)">
                <path d="M0,-2.927L-25.672,-2.927C-26.477,-2.927 -27.136,-2.269 -27.136,-1.464C-27.136,-0.659 -26.477,0 -25.672,0L0,0L0,-2.927Z" style="fill:rgb(208,224,220);fill-rule:nonzero;"/>
            </g>
            <g transform="matrix(5.78675,0,0,5.95619,845.387,1113.99)">
                <path d="M0,-2.927L-29.556,-2.927C-30.36,-2.927 -31.018,-2.269 -31.018,-1.465L-31.018,-1.463C-31.018,-0.658 -30.36,0 -29.556,0L0,0L0,-2.927Z" style="fill:rgb(208,224,220);fill-rule:nonzero;"/>
            </g>
        </g>
    </g>
    <g transform="matrix(1.92352,0,0,1.92352,-1280.86,-1547.5)">
        <g>
            <g transform="matrix(5.78675,0,0,5.95619,842.802,898.909)">
                <path d="M0,-15.724L-24.928,-1.637C-25.791,-1.15 -25.445,0.166 -24.454,0.166L25.403,0.166C26.394,0.166 26.739,-1.15 25.877,-1.637L0.948,-15.724C0.654,-15.89 0.294,-15.89 0,-15.724" style="fill:rgb(136,162,170);fill-rule:nonzero;"/>
            </g>
            <g transform="matrix(5.78675,0,0,5.95619,994.263,906.868)">
                <path d="M0,2.927L-51.399,2.927C-52.204,2.927 -52.863,2.269 -52.863,1.464C-52.863,0.658 -52.204,0 -51.399,0L0,0C0.805,0 1.463,0.658 1.463,1.464C1.463,2.269 0.805,2.927 0,2.927" style="fill:rgb(136,162,170);fill-rule:nonzero;"/>
            </g>
            <g transform="matrix(-5.78675,0,0,5.95619,1355.57,-617.438)">
                <rect x="106.636" y="259.94" width="3.825" height="21.855" style="fill:rgb(64,72,82);"/>
            </g>
            <g transform="matrix(-5.78675,0,0,5.95619,1450.06,-617.438)">
                <rect x="114.8" y="259.94" width="3.825" height="21.855" style="fill:rgb(64,72,82);"/>
            </g>
            <g transform="matrix(-5.78675,0,0,5.95619,1544.56,-617.438)">
                <rect x="122.965" y="259.94" width="3.825" height="21.855" style="fill:rgb(64,72,82);"/>
            </g>
            <g transform="matrix(-5.78675,0,0,5.95619,1639.05,-617.438)">
                <rect x="131.13" y="259.94" width="3.825" height="21.855" style="fill:rgb(136,162,170);"/>
            </g>
            <g transform="matrix(-5.78675,0,0,5.95619,1733.54,-617.438)">
                <rect x="139.294" y="259.94" width="3.825" height="21.855" style="fill:rgb(136,162,170);"/>
            </g>
            <g transform="matrix(-5.78675,0,0,5.95619,1828.04,-617.438)">
                <rect x="147.459" y="259.94" width="3.825" height="21.855" style="fill:rgb(136,162,170);"/>
            </g>
            <g transform="matrix(5.78675,0,0,5.95619,994.263,1068.66)">
                <path d="M0,2.927L-51.399,2.927C-52.204,2.927 -52.863,2.268 -52.863,1.464C-52.863,0.658 -52.204,0 -51.399,0L0,0C0.805,0 1.463,0.658 1.463,1.464C1.463,2.268 0.805,2.927 0,2.927" style="fill:rgb(136,162,170);fill-rule:nonzero;"/>
            </g>
            <g transform="matrix(5.78675,0,0,5.95619,1016.74,1096.55)">
                <path d="M0,2.927L-59.166,2.927C-59.97,2.927 -60.628,2.269 -60.628,1.465L-60.628,1.462C-60.628,0.658 -59.97,0 -59.166,0L0,0C0.804,0 1.462,0.658 1.462,1.462L1.462,1.465C1.462,2.269 0.804,2.927 0,2.927" style="fill:rgb(136,162,170);fill-rule:nonzero;"/>
            </g>
            <g transform="matrix(-5.78675,0,0,5.95619,1355.57,-617.438)">
                <rect x="106.636" y="259.94" width="3.825" height="21.855" style="fill:rgb(208,224,220);"/>
            </g>
            <g transform="matrix(-5.78675,0,0,5.95619,1450.06,-617.438)">
                <rect x="114.8" y="259.94" width="3.825" height="21.855" style="fill:rgb(208,224,220);"/>
            </g>
            <g transform="matrix(-5.78675,0,0,5.95619,1544.56,-617.438)">
                <rect x="122.965" y="259.94" width="3.825" height="21.855" style="fill:rgb(208,224,220);"/>
            </g>
            <g transform="matrix(5.78675,0,0,5.95619,845.387,899.897)">
                <path d="M0,-16.011C-0.154,-16.007 -0.308,-15.968 -0.447,-15.89L-25.375,-1.803C-26.238,-1.316 -25.892,0 -24.901,0L0,0L0,-16.011Z" style="fill:rgb(208,224,220);fill-rule:nonzero;"/>
            </g>
            <g transform="matrix(5.78675,0,0,5.95619,845.387,924.304)">
                <path d="M0,-2.927L-25.672,-2.927C-26.477,-2.927 -27.136,-2.269 -27.136,-1.464C-27.136,-0.658 -26.477,0 -25.672,0L0,0L0,-2.927Z" style="fill:rgb(208,224,220);fill-rule:nonzero;"/>
            </g>
            <g transform="matrix(5.78675,0,0,5.95619,845.387,1086.09)">
                <path d="M0,-2.927L-25.672,-2.927C-26.477,-2.927 -27.136,-2.269 -27.136,-1.464C-27.136,-0.659 -26.477,0 -25.672,0L0,0L0,-2.927Z" style="fill:rgb(208,224,220);fill-rule:nonzero;"/>
            </g>
            <g transform="matrix(5.78675,0,0,5.95619,845.387,1113.99)">
                <path d="M0,-2.927L-29.556,-2.927C-30.36,-2.927 -31.018,-2.269 -31.018,-1.465L-31.018,-1.463C-31.018,-0.658 -30.36,0 -29.556,0L0,0L0,-2.927Z" style="fill:rgb(208,224,220);fill-rule:nonzero;"/>
            </g>
        </g>
    </g>
</svg>
