<?xml version="1.0" encoding="UTF-8" standalone="no"?>
<!DOCTYPE svg PUBLIC "-//W3C//DTD SVG 1.1//EN" "http://www.w3.org/Graphics/SVG/1.1/DTD/svg11.dtd">
<svg width="100%" height="100%" viewBox="0 0 780 743" version="1.1" xmlns="http://www.w3.org/2000/svg" xmlns:xlink="http://www.w3.org/1999/xlink" xml:space="preserve" xmlns:serif="http://www.serif.com/" style="fill-rule:evenodd;clip-rule:evenodd;stroke-linejoin:round;stroke-miterlimit:1.41421;">
    <g transform="matrix(1,0,0,1,-150.198,-124.558)">
        <g transform="matrix(1,0,0,1,-707.485,-571.534)">
            <rect x="869.8" y="1371.07" width="7.505" height="56.406" style="fill:rgb(89,89,89);fill-rule:nonzero;"/>
            <path d="M903.849,1386.63L903.849,1427.48L910.564,1427.48L910.564,1404.41C910.564,1402.57 910.814,1400.87 911.314,1399.31C911.814,1397.76 912.565,1396.4 913.566,1395.25C914.566,1394.09 915.817,1393.19 917.318,1392.56C918.819,1391.93 920.597,1391.61 922.651,1391.61C925.231,1391.61 927.259,1392.35 928.734,1393.82C930.208,1395.3 930.946,1397.3 930.946,1399.83L930.946,1427.48L937.661,1427.48L937.661,1400.62C937.661,1398.4 937.437,1396.39 936.989,1394.57C936.541,1392.76 935.765,1391.19 934.659,1389.87C933.553,1388.56 932.104,1387.53 930.314,1386.79C928.523,1386.05 926.285,1385.69 923.599,1385.69C917.542,1385.69 913.118,1388.16 910.327,1393.11L910.169,1393.11L910.169,1386.63L903.849,1386.63Z" style="fill:rgb(89,89,89);fill-rule:nonzero;"/>
            <path d="M1024.17,1404.41L1045.73,1371.07L1037.2,1371.07L1020.69,1397.93L1003.78,1371.07L994.857,1371.07L1016.66,1404.41L1016.66,1427.48L1024.17,1427.48L1024.17,1404.41Z" style="fill:rgb(89,89,89);fill-rule:nonzero;"/>
            <path d="M1062.09,1407.1C1062.09,1404.62 1062.41,1402.42 1063.07,1400.5C1063.73,1398.58 1064.64,1396.96 1065.8,1395.64C1066.96,1394.32 1068.31,1393.32 1069.87,1392.64C1071.42,1391.95 1073.07,1391.61 1074.81,1391.61C1076.54,1391.61 1078.19,1391.95 1079.74,1392.64C1081.3,1393.32 1082.65,1394.32 1083.81,1395.64C1084.97,1396.96 1085.88,1398.58 1086.54,1400.5C1087.19,1402.42 1087.52,1404.62 1087.52,1407.1C1087.52,1409.57 1087.19,1411.77 1086.54,1413.69C1085.88,1415.61 1084.97,1417.22 1083.81,1418.51C1082.65,1419.8 1081.3,1420.79 1079.74,1421.47C1078.19,1422.16 1076.54,1422.5 1074.81,1422.5C1073.07,1422.5 1071.42,1422.16 1069.87,1421.47C1068.31,1420.79 1066.96,1419.8 1065.8,1418.51C1064.64,1417.22 1063.73,1415.61 1063.07,1413.69C1062.41,1411.77 1062.09,1409.57 1062.09,1407.1ZM1054.98,1407.1C1054.98,1410.1 1055.4,1412.89 1056.24,1415.47C1057.08,1418.05 1058.35,1420.3 1060.03,1422.22C1061.72,1424.15 1063.8,1425.65 1066.27,1426.73C1068.75,1427.81 1071.59,1428.35 1074.81,1428.35C1078.07,1428.35 1080.93,1427.81 1083.38,1426.73C1085.83,1425.65 1087.89,1424.15 1089.58,1422.22C1091.26,1420.3 1092.53,1418.05 1093.37,1415.47C1094.21,1412.89 1094.63,1410.1 1094.63,1407.1C1094.63,1404.09 1094.21,1401.29 1093.37,1398.68C1092.53,1396.07 1091.26,1393.81 1089.58,1391.89C1087.89,1389.96 1085.83,1388.45 1083.38,1387.35C1080.93,1386.24 1078.07,1385.69 1074.81,1385.69C1071.59,1385.69 1068.75,1386.24 1066.27,1387.35C1063.8,1388.45 1061.72,1389.96 1060.03,1391.89C1058.35,1393.81 1057.08,1396.07 1056.24,1398.68C1055.4,1401.29 1054.98,1404.09 1054.98,1407.1Z" style="fill:rgb(89,89,89);fill-rule:nonzero;"/>
            <path d="M1151.36,1427.48L1151.36,1386.63L1144.64,1386.63L1144.64,1409.7C1144.64,1411.55 1144.39,1413.24 1143.89,1414.8C1143.39,1416.35 1142.64,1417.71 1141.64,1418.87C1140.64,1420.02 1139.39,1420.92 1137.89,1421.55C1136.38,1422.18 1134.61,1422.5 1132.55,1422.5C1129.97,1422.5 1127.94,1421.76 1126.47,1420.29C1125,1418.81 1124.26,1416.81 1124.26,1414.28L1124.26,1386.63L1117.54,1386.63L1117.54,1413.49C1117.54,1415.71 1117.77,1417.72 1118.21,1419.54C1118.66,1421.35 1119.44,1422.92 1120.55,1424.24C1121.65,1425.55 1123.1,1426.57 1124.89,1427.28C1126.68,1427.99 1128.92,1428.35 1131.61,1428.35C1134.61,1428.35 1137.21,1427.75 1139.43,1426.57C1141.64,1425.38 1143.46,1423.53 1144.88,1421L1145.04,1421L1145.04,1427.48L1151.36,1427.48Z" style="fill:rgb(89,89,89);fill-rule:nonzero;"/>
            <path d="M1176.24,1386.63L1176.24,1427.48L1182.96,1427.48L1182.96,1409.31C1182.96,1406.67 1183.22,1404.34 1183.75,1402.32C1184.27,1400.29 1185.12,1398.56 1186.27,1397.14C1187.43,1395.72 1188.96,1394.64 1190.86,1393.9C1192.75,1393.16 1195.04,1392.8 1197.73,1392.8L1197.73,1385.69C1194.1,1385.58 1191.09,1386.32 1188.72,1387.9C1186.35,1389.48 1184.35,1391.93 1182.72,1395.25L1182.56,1395.25L1182.56,1386.63L1176.24,1386.63Z" style="fill:rgb(89,89,89);fill-rule:nonzero;"/>
            <path d="M1263.38,1421.16L1263.38,1377.39L1276.02,1377.39C1279.49,1377.39 1282.42,1377.88 1284.79,1378.85C1287.16,1379.83 1289.09,1381.25 1290.59,1383.12C1292.09,1384.99 1293.17,1387.25 1293.83,1389.91C1294.49,1392.57 1294.82,1395.59 1294.82,1398.96C1294.82,1402.43 1294.46,1405.4 1293.75,1407.85C1293.04,1410.29 1292.13,1412.34 1291.03,1413.97C1289.92,1415.6 1288.67,1416.89 1287.28,1417.84C1285.88,1418.79 1284.47,1419.51 1283.05,1420.01C1281.63,1420.51 1280.28,1420.83 1279.02,1420.96C1277.76,1421.09 1276.7,1421.16 1275.86,1421.16L1263.38,1421.16ZM1255.87,1371.07L1255.87,1427.48L1275.23,1427.48C1279.91,1427.48 1283.97,1426.82 1287.39,1425.5C1290.82,1424.18 1293.63,1422.28 1295.85,1419.77C1298.06,1417.27 1299.69,1414.19 1300.75,1410.53C1301.8,1406.87 1302.33,1402.67 1302.33,1397.93C1302.33,1388.87 1299.98,1382.13 1295.29,1377.71C1290.61,1373.28 1283.92,1371.07 1275.23,1371.07L1255.87,1371.07Z" style="fill:rgb(89,89,89);fill-rule:nonzero;"/>
            <path d="M1353.75,1403.14L1330.29,1403.14C1330.4,1401.57 1330.74,1400.08 1331.32,1398.68C1331.9,1397.29 1332.69,1396.06 1333.69,1395.01C1334.69,1393.95 1335.89,1393.12 1337.28,1392.52C1338.68,1391.91 1340.25,1391.61 1341.98,1391.61C1343.67,1391.61 1345.21,1391.91 1346.6,1392.52C1348,1393.12 1349.21,1393.94 1350.24,1394.97C1351.27,1396 1352.08,1397.22 1352.69,1398.64C1353.29,1400.06 1353.65,1401.57 1353.75,1403.14ZM1360.23,1414.52L1353.6,1414.52C1353.02,1417.21 1351.82,1419.21 1350,1420.53C1348.18,1421.84 1345.85,1422.5 1343.01,1422.5C1340.8,1422.5 1338.88,1422.13 1337.24,1421.39C1335.61,1420.66 1334.27,1419.67 1333.21,1418.43C1332.16,1417.19 1331.4,1415.77 1330.92,1414.16C1330.45,1412.56 1330.24,1410.86 1330.29,1409.07L1360.86,1409.07C1360.97,1406.59 1360.75,1403.99 1360.19,1401.25C1359.64,1398.51 1358.64,1395.98 1357.19,1393.66C1355.74,1391.35 1353.82,1389.44 1351.42,1387.94C1349.03,1386.44 1346.01,1385.69 1342.38,1385.69C1339.59,1385.69 1337.02,1386.21 1334.67,1387.27C1332.33,1388.32 1330.3,1389.79 1328.59,1391.69C1326.88,1393.59 1325.55,1395.82 1324.6,1398.4C1323.65,1400.99 1323.18,1403.83 1323.18,1406.94C1323.29,1410.04 1323.75,1412.91 1324.56,1415.55C1325.38,1418.18 1326.6,1420.45 1328.24,1422.34C1329.87,1424.24 1331.88,1425.71 1334.28,1426.77C1336.68,1427.82 1339.51,1428.35 1342.77,1428.35C1347.41,1428.35 1351.25,1427.19 1354.31,1424.87C1357.36,1422.55 1359.34,1419.1 1360.23,1414.52Z" style="fill:rgb(89,89,89);fill-rule:nonzero;"/>
            <path d="M1385.59,1392.56L1385.59,1427.48L1392.31,1427.48L1392.31,1392.56L1400.21,1392.56L1400.21,1386.63L1392.31,1386.63L1392.31,1380.95C1392.31,1379.15 1392.75,1377.94 1393.65,1377.31C1394.54,1376.68 1395.81,1376.36 1397.44,1376.36C1398.02,1376.36 1398.65,1376.4 1399.34,1376.48C1400.02,1376.56 1400.65,1376.71 1401.23,1376.92L1401.23,1371.07C1400.6,1370.86 1399.88,1370.7 1399.06,1370.6C1398.24,1370.49 1397.52,1370.44 1396.89,1370.44C1393.2,1370.44 1390.4,1371.3 1388.47,1373.01C1386.55,1374.72 1385.59,1377.23 1385.59,1380.55L1385.59,1386.63L1378.72,1386.63L1378.72,1392.56L1385.59,1392.56Z" style="fill:rgb(89,89,89);fill-rule:nonzero;"/>
            <path d="M1449.58,1403.14L1426.12,1403.14C1426.22,1401.57 1426.57,1400.08 1427.14,1398.68C1427.72,1397.29 1428.51,1396.06 1429.52,1395.01C1430.52,1393.95 1431.71,1393.12 1433.11,1392.52C1434.51,1391.91 1436.07,1391.61 1437.81,1391.61C1439.5,1391.61 1441.04,1391.91 1442.43,1392.52C1443.83,1393.12 1445.04,1393.94 1446.07,1394.97C1447.09,1396 1447.91,1397.22 1448.51,1398.64C1449.12,1400.06 1449.48,1401.57 1449.58,1403.14ZM1456.06,1414.52L1449.42,1414.52C1448.84,1417.21 1447.64,1419.21 1445.83,1420.53C1444.01,1421.84 1441.68,1422.5 1438.84,1422.5C1436.62,1422.5 1434.7,1422.13 1433.07,1421.39C1431.44,1420.66 1430.09,1419.67 1429.04,1418.43C1427.99,1417.19 1427.22,1415.77 1426.75,1414.16C1426.28,1412.56 1426.07,1410.86 1426.12,1409.07L1456.69,1409.07C1456.8,1406.59 1456.57,1403.99 1456.02,1401.25C1455.47,1398.51 1454.46,1395.98 1453.02,1393.66C1451.57,1391.35 1449.65,1389.44 1447.25,1387.94C1444.85,1386.44 1441.84,1385.69 1438.2,1385.69C1435.41,1385.69 1432.85,1386.21 1430.5,1387.27C1428.16,1388.32 1426.13,1389.79 1424.42,1391.69C1422.71,1393.59 1421.38,1395.82 1420.43,1398.4C1419.48,1400.99 1419.01,1403.83 1419.01,1406.94C1419.11,1410.04 1419.57,1412.91 1420.39,1415.55C1421.21,1418.18 1422.43,1420.45 1424.06,1422.34C1425.7,1424.24 1427.71,1425.71 1430.11,1426.77C1432.5,1427.82 1435.33,1428.35 1438.6,1428.35C1443.23,1428.35 1447.08,1427.19 1450.13,1424.87C1453.19,1422.55 1455.16,1419.1 1456.06,1414.52Z" style="fill:rgb(89,89,89);fill-rule:nonzero;"/>
            <path d="M1478.65,1386.63L1478.65,1427.48L1485.37,1427.48L1485.37,1404.41C1485.37,1402.57 1485.62,1400.87 1486.12,1399.31C1486.62,1397.76 1487.37,1396.4 1488.37,1395.25C1489.37,1394.09 1490.62,1393.19 1492.12,1392.56C1493.62,1391.93 1495.4,1391.61 1497.45,1391.61C1500.04,1391.61 1502.06,1392.35 1503.54,1393.82C1505.01,1395.3 1505.75,1397.3 1505.75,1399.83L1505.75,1427.48L1512.46,1427.48L1512.46,1400.62C1512.46,1398.4 1512.24,1396.39 1511.79,1394.57C1511.35,1392.76 1510.57,1391.19 1509.46,1389.87C1508.36,1388.56 1506.91,1387.53 1505.12,1386.79C1503.33,1386.05 1501.09,1385.69 1498.4,1385.69C1492.35,1385.69 1487.92,1388.16 1485.13,1393.11L1484.97,1393.11L1484.97,1386.63L1478.65,1386.63Z" style="fill:rgb(89,89,89);fill-rule:nonzero;"/>
            <path d="M1565.32,1399.75L1572.27,1399.75C1572,1397.33 1571.37,1395.23 1570.37,1393.47C1569.37,1391.7 1568.09,1390.24 1566.54,1389.08C1564.99,1387.92 1563.2,1387.07 1561.17,1386.52C1559.14,1385.96 1556.97,1385.69 1554.65,1385.69C1551.44,1385.69 1548.62,1386.25 1546.2,1387.38C1543.78,1388.52 1541.76,1390.07 1540.15,1392.05C1538.55,1394.02 1537.35,1396.34 1536.56,1399C1535.77,1401.66 1535.38,1404.51 1535.38,1407.57C1535.38,1410.62 1535.78,1413.43 1536.6,1415.98C1537.41,1418.54 1538.63,1420.74 1540.23,1422.58C1541.84,1424.42 1543.84,1425.84 1546.24,1426.85C1548.63,1427.85 1551.38,1428.35 1554.49,1428.35C1559.71,1428.35 1563.83,1426.98 1566.86,1424.24C1569.88,1421.5 1571.77,1417.6 1572.51,1412.55L1565.63,1412.55C1565.21,1415.71 1564.07,1418.15 1562.19,1419.89C1560.33,1421.63 1557.73,1422.5 1554.41,1422.5C1552.31,1422.5 1550.49,1422.08 1548.96,1421.24C1547.43,1420.39 1546.2,1419.27 1545.25,1417.88C1544.3,1416.48 1543.6,1414.89 1543.16,1413.1C1542.71,1411.31 1542.49,1409.46 1542.49,1407.57C1542.49,1405.52 1542.69,1403.53 1543.12,1401.6C1543.54,1399.68 1544.24,1397.98 1545.21,1396.51C1546.18,1395.03 1547.49,1393.85 1549.12,1392.95C1550.75,1392.06 1552.78,1391.61 1555.2,1391.61C1558.05,1391.61 1560.31,1392.32 1562,1393.74C1563.68,1395.17 1564.79,1397.17 1565.32,1399.75Z" style="fill:rgb(89,89,89);fill-rule:nonzero;"/>
            <path d="M1623.38,1403.14L1599.92,1403.14C1600.02,1401.57 1600.37,1400.08 1600.94,1398.68C1601.52,1397.29 1602.31,1396.06 1603.32,1395.01C1604.32,1393.95 1605.51,1393.12 1606.91,1392.52C1608.31,1391.91 1609.87,1391.61 1611.61,1391.61C1613.3,1391.61 1614.84,1391.91 1616.23,1392.52C1617.63,1393.12 1618.84,1393.94 1619.87,1394.97C1620.89,1396 1621.71,1397.22 1622.31,1398.64C1622.92,1400.06 1623.28,1401.57 1623.38,1403.14ZM1629.86,1414.52L1623.22,1414.52C1622.64,1417.21 1621.44,1419.21 1619.63,1420.53C1617.81,1421.84 1615.48,1422.5 1612.64,1422.5C1610.42,1422.5 1608.5,1422.13 1606.87,1421.39C1605.24,1420.66 1603.89,1419.67 1602.84,1418.43C1601.79,1417.19 1601.02,1415.77 1600.55,1414.16C1600.08,1412.56 1599.87,1410.86 1599.92,1409.07L1630.49,1409.07C1630.6,1406.59 1630.37,1403.99 1629.82,1401.25C1629.27,1398.51 1628.27,1395.98 1626.82,1393.66C1625.37,1391.35 1623.45,1389.44 1621.05,1387.94C1618.65,1386.44 1615.64,1385.69 1612.01,1385.69C1609.21,1385.69 1606.65,1386.21 1604.3,1387.27C1601.96,1388.32 1599.93,1389.79 1598.22,1391.69C1596.51,1393.59 1595.18,1395.82 1594.23,1398.4C1593.28,1400.99 1592.81,1403.83 1592.81,1406.94C1592.91,1410.04 1593.37,1412.91 1594.19,1415.55C1595.01,1418.18 1596.23,1420.45 1597.86,1422.34C1599.5,1424.24 1601.51,1425.71 1603.91,1426.77C1606.3,1427.82 1609.13,1428.35 1612.4,1428.35C1617.03,1428.35 1620.88,1427.19 1623.93,1424.87C1626.99,1422.55 1628.96,1419.1 1629.86,1414.52Z" style="fill:rgb(89,89,89);fill-rule:nonzero;"/>
        </g>
        <g transform="matrix(1.28803,0,0,1.23398,-1585.4,-1409.76)">
            <path d="M1645.12,1244.82L1367.65,1406.21C1358.05,1411.79 1361.9,1426.87 1372.93,1426.87L1927.88,1426.87C1938.91,1426.87 1942.75,1411.79 1933.16,1406.21L1655.67,1244.82C1652.4,1242.92 1648.4,1242.92 1645.12,1244.82" style="fill:rgb(136,162,170);fill-rule:nonzero;"/>
        </g>
        <g transform="matrix(1.28803,0,0,1.33203,-1585.4,-836.972)">
            <rect x="1401.91" y="933.064" width="42.576" height="250.389" style="fill:rgb(64,72,82);"/>
        </g>
        <g transform="matrix(1.28803,0,0,1.33203,-1585.4,-836.972)">
            <rect x="1492.79" y="933.064" width="42.576" height="250.389" style="fill:rgb(64,72,82);"/>
        </g>
        <g transform="matrix(1.28803,0,0,1.33203,-1585.4,-836.972)">
            <rect x="1583.67" y="933.064" width="42.576" height="250.389" style="fill:rgb(64,72,82);"/>
        </g>
        <g transform="matrix(1.28803,0,0,1.33203,-1585.4,-836.972)">
            <rect x="1674.56" y="933.064" width="42.576" height="250.389" style="fill:rgb(136,162,170);"/>
        </g>
        <g transform="matrix(1.28803,0,0,1.33203,-1585.4,-836.972)">
            <rect x="1765.43" y="933.064" width="42.576" height="250.389" style="fill:rgb(136,162,170);"/>
        </g>
        <g transform="matrix(1.28803,0,0,1.33203,-1585.4,-836.972)">
            <rect x="1856.31" y="933.064" width="42.576" height="250.389" style="fill:rgb(136,162,170);"/>
        </g>
        <g transform="matrix(1.28803,0,0,0.581776,-1585.4,236.784)">
            <path d="M1936.46,918.309L1364.34,918.309C1355.38,918.309 1348.05,910.759 1348.05,901.548C1348.05,892.314 1355.38,884.775 1364.34,884.775L1936.46,884.775C1945.42,884.775 1952.75,892.314 1952.75,901.548C1952.75,910.759 1945.42,918.309 1936.46,918.309" style="fill:rgb(136,162,170);fill-rule:nonzero;"/>
        </g>
        <g transform="matrix(1.28803,0,0,1.33203,-1585.4,-836.972)">
            <rect x="1401.91" y="933.064" width="42.576" height="250.389" style="fill:rgb(208,224,220);"/>
        </g>
        <g transform="matrix(1.28803,0,0,1.33203,-1585.4,-836.972)">
            <rect x="1492.79" y="933.064" width="42.576" height="250.389" style="fill:rgb(208,224,220);"/>
        </g>
        <g transform="matrix(1.28803,0,0,1.33203,-1585.4,-836.972)">
            <rect x="1583.67" y="933.064" width="42.576" height="250.389" style="fill:rgb(208,224,220);"/>
        </g>
        <g transform="matrix(1.28803,0,0,1.23398,-1585.4,-1409.13)">
            <path d="M1650.1,1242.92C1648.38,1242.97 1646.67,1243.42 1645.12,1244.31L1367.65,1405.7C1358.04,1411.28 1361.89,1426.36 1372.92,1426.36L1650.1,1426.36L1650.1,1242.92Z" style="fill:rgb(208,224,220);fill-rule:nonzero;"/>
        </g>
        <g transform="matrix(1.28803,0,0,0.581776,-1585.4,236.786)">
            <path d="M1650.1,884.773L1364.34,884.773C1355.38,884.773 1348.05,892.312 1348.05,901.535C1348.05,910.757 1355.38,918.307 1364.34,918.307L1650.1,918.307L1650.1,884.773Z" style="fill:rgb(208,224,220);fill-rule:nonzero;"/>
        </g>
        <g transform="matrix(1.28803,0,0,0.581776,-1586.13,-140.376)">
            <path d="M1936.46,918.309L1364.34,918.309C1355.38,918.309 1348.05,910.759 1348.05,901.548C1348.05,892.314 1355.38,884.775 1364.34,884.775L1936.46,884.775C1945.42,884.775 1952.75,892.314 1952.75,901.548C1952.75,910.759 1945.42,918.309 1936.46,918.309" style="fill:rgb(136,162,170);fill-rule:nonzero;"/>
        </g>
        <g transform="matrix(1.28803,0,0,0.581776,-1586.13,-140.374)">
            <path d="M1650.1,884.773L1364.34,884.773C1355.38,884.773 1348.05,892.312 1348.05,901.535C1348.05,910.757 1355.38,918.307 1364.34,918.307L1650.1,918.307L1650.1,884.773Z" style="fill:rgb(208,224,220);fill-rule:nonzero;"/>
        </g>
    </g>
</svg>
