<?xml version="1.0" encoding="UTF-8" standalone="no"?>
<!DOCTYPE svg PUBLIC "-//W3C//DTD SVG 1.1//EN" "http://www.w3.org/Graphics/SVG/1.1/DTD/svg11.dtd">
<svg width="100%" height="100%" viewBox="0 0 2507 1185" version="1.1" xmlns="http://www.w3.org/2000/svg" xmlns:xlink="http://www.w3.org/1999/xlink" xml:space="preserve" xmlns:serif="http://www.serif.com/" style="fill-rule:evenodd;clip-rule:evenodd;stroke-miterlimit:1.41421;">
    <g transform="matrix(7.61391,0,0,7.61391,-445.493,-1606.01)">
        <path d="M283.667,317.012L251.939,318.815L220.207,320.537L219.133,320.595L219.465,319.543C220.137,317.417 220.681,315.191 221.126,312.977C221.57,310.756 221.914,308.516 222.138,306.268C222.594,301.779 222.551,297.233 221.729,292.861C221.536,291.765 221.242,290.698 220.946,289.634L220.407,288.072C220.222,287.554 219.978,287.062 219.768,286.555C219.57,286.042 219.282,285.577 219.03,285.093L218.642,284.372L218.19,283.693C217.622,282.763 216.914,281.937 216.208,281.118L215.062,279.969C214.661,279.607 214.226,279.282 213.811,278.936C213.408,278.574 212.933,278.304 212.482,278.004C212.027,277.711 211.586,277.395 211.088,277.169L209.636,276.426L208.109,275.828C207.608,275.611 207.084,275.449 206.552,275.309L204.968,274.855L205.115,274.882C204.121,274.808 202.912,274.882 201.811,275.051C200.69,275.224 199.574,275.474 198.498,275.844C197.422,276.215 196.362,276.64 195.364,277.19C194.35,277.709 193.405,278.354 192.482,279.021C192.04,279.384 191.591,279.737 191.161,280.111C190.749,280.51 190.317,280.885 189.921,281.299C189.538,281.726 189.133,282.132 188.765,282.573L187.69,283.924L186.704,285.347C186.391,285.833 186.106,286.339 185.805,286.833C185.491,287.32 185.255,287.856 184.982,288.368C184.711,288.883 184.448,289.401 184.228,289.943L183.534,291.551L182.931,293.2C182.516,294.295 182.227,295.441 181.873,296.56C181.607,297.71 181.282,298.841 181.061,300.003C180.853,301.168 180.579,302.316 180.437,303.496C180.277,304.671 180.072,305.837 179.979,307.024C179.875,308.207 179.714,309.383 179.67,310.575C179.613,311.764 179.508,312.949 179.49,314.141L179.422,317.718L179.393,319.234L177.894,319.28C172.984,319.434 168.096,319.555 163.198,319.623C158.302,319.723 153.406,319.722 148.51,319.726L141.166,319.73L133.823,319.655L126.48,319.579C124.032,319.57 121.585,319.487 119.138,319.433L104.453,319.077L89.774,318.479L82.435,318.17L75.101,317.722L60.432,316.826L58.731,316.722L58.674,314.998C58.536,310.801 58.492,306.647 58.517,302.468C58.546,298.293 58.648,294.116 58.881,289.931C59.123,285.745 59.462,281.555 60.158,277.337C60.514,275.227 60.949,273.113 61.693,270.96C62.078,269.884 62.522,268.791 63.31,267.672C63.717,267.119 64.21,266.542 64.964,266.058C65.7,265.567 66.797,265.283 67.751,265.419L66.141,265.953C66.475,265.678 66.837,265.349 67.158,265.129L68.121,264.462C68.766,264.029 69.399,263.541 70.067,263.199C71.39,262.462 72.701,261.685 74.037,260.987L78.12,259.119L80.162,258.187C80.853,257.91 81.556,257.671 82.252,257.411L86.438,255.881C87.837,255.385 89.216,254.814 90.649,254.452L99.179,252.011C99.892,251.817 100.597,251.584 101.316,251.422L103.477,250.952L107.799,250.013L112.121,249.075C113.563,248.78 114.996,248.41 116.448,248.176L133.888,245.447L133.091,245.751C137.652,242.678 142.236,239.694 146.862,236.747C151.488,233.806 156.151,230.919 160.873,228.117C165.597,225.319 170.374,222.598 175.291,220.078C177.751,218.819 180.252,217.621 182.846,216.547C184.141,216.007 185.475,215.517 186.857,215.089C187.566,214.891 188.264,214.689 189.028,214.554C189.417,214.494 189.792,214.424 190.193,214.378L191.489,214.35L191.187,214.356C198.588,213.567 205.971,213.011 213.373,212.502C220.771,212.007 228.177,211.616 235.589,211.341C239.294,211.202 243.002,211.103 246.71,211.027C250.418,210.958 254.128,210.927 257.838,210.931C261.549,210.948 265.26,210.997 268.971,211.104C272.682,211.219 276.393,211.371 280.101,211.614C281.955,211.738 283.809,211.854 285.661,212.031L288.438,212.274L291.213,212.58C294.913,212.976 298.599,213.541 302.27,214.206C305.933,214.938 309.577,215.809 313.138,217.029C314.026,217.334 314.897,217.709 315.776,218.047L316.434,218.306L316.598,218.371L316.778,218.455L317.093,218.605L318.346,219.206L323.344,221.634C329.994,224.897 336.61,228.228 343.151,231.712C346.421,233.454 349.668,235.241 352.869,237.117C354.465,238.063 356.052,239.027 357.604,240.053C359.139,241.108 360.707,242.114 361.98,243.618L361.799,243.502C365.33,244.346 368.824,245.305 372.279,246.404C374.006,246.955 375.716,247.559 377.399,248.232C378.24,248.57 379.068,248.938 379.881,249.339C380.288,249.538 380.677,249.774 381.075,249.989C381.467,250.215 381.827,250.494 382.204,250.743C381.819,250.504 381.453,250.237 381.056,250.022C380.652,249.819 380.259,249.596 379.848,249.409C379.026,249.032 378.191,248.689 377.343,248.376C375.647,247.753 373.925,247.2 372.189,246.699C368.716,245.703 365.199,244.844 361.667,244.106L361.571,244.086L361.485,243.989C360.33,242.683 358.73,241.664 357.202,240.673C355.646,239.69 354.049,238.766 352.442,237.86C349.22,236.061 345.945,234.348 342.647,232.68C336.051,229.345 329.376,226.16 322.671,223.045L317.633,220.728L316.372,220.155L316.057,220.013C316.014,219.995 315.929,219.954 315.921,219.954L315.761,219.895L315.123,219.659C314.268,219.353 313.43,219.01 312.564,218.733C309.096,217.621 305.507,216.862 301.905,216.194C298.287,215.587 294.647,215.077 290.983,214.733L288.237,214.466L285.483,214.261C283.648,214.109 281.808,214.018 279.969,213.92C276.289,213.726 272.603,213.623 268.916,213.556C265.228,213.498 261.539,213.497 257.849,213.528C254.159,213.572 250.469,213.651 246.779,213.766C243.09,213.89 239.401,214.037 235.713,214.223C228.338,214.593 220.968,215.078 213.605,215.666C209.925,215.962 206.246,216.283 202.57,216.63C198.898,216.985 195.214,217.339 191.564,217.739L191.422,217.755L191.263,217.745C190.336,217.694 189.038,218.023 187.845,218.364C186.619,218.751 185.385,219.206 184.16,219.724C181.707,220.752 179.278,221.926 176.877,223.168C172.075,225.656 167.357,228.368 162.687,231.162C158.018,233.96 153.396,236.848 148.809,239.793C144.226,242.739 139.66,245.741 135.166,248.796L134.827,249.027L134.369,249.1L117.138,251.873C115.704,252.11 114.299,252.48 112.878,252.777L108.628,253.719L104.377,254.661L102.252,255.132C101.545,255.294 100.86,255.525 100.163,255.718L91.827,258.142C90.42,258.502 89.094,259.063 87.738,259.55L83.688,261.049C83.015,261.302 82.332,261.538 81.668,261.807L79.722,262.708L75.831,264.505C74.58,265.166 73.376,265.891 72.145,266.579C71.508,266.906 70.986,267.327 70.418,267.709L69.577,268.291C69.295,268.486 69.124,268.662 68.886,268.843L68.243,269.332L67.275,269.377C67.195,269.381 67.225,269.362 67.092,269.437C66.968,269.515 66.758,269.725 66.557,270.008C66.14,270.584 65.758,271.418 65.451,272.293C64.829,274.061 64.401,276.022 64.063,277.999C63.39,281.969 63.035,286.062 62.782,290.157C62.536,294.257 62.417,298.377 62.371,302.501C62.329,306.62 62.355,310.765 62.473,314.863L60.715,313.035L75.325,313.99L82.63,314.468L89.944,314.806L104.576,315.465L119.218,315.883C121.659,315.947 124.099,316.04 126.54,316.06L133.865,316.166L141.189,316.273L148.514,316.3L155.838,316.319L163.162,316.283C168.043,316.279 172.932,316.221 177.798,316.131L176.27,317.694L176.388,314.021C176.423,312.797 176.545,311.572 176.621,310.348C176.684,309.124 176.864,307.903 176.988,306.681C177.101,305.457 177.328,304.242 177.511,303.025C177.675,301.804 177.975,300.6 178.21,299.389C178.456,298.179 178.812,296.988 179.109,295.787C179.496,294.606 179.817,293.407 180.273,292.245L180.938,290.499L181.703,288.787C181.947,288.212 182.237,287.656 182.536,287.104C182.837,286.553 183.101,285.984 183.447,285.456C183.78,284.922 184.098,284.379 184.446,283.854L185.545,282.311L186.747,280.84C187.159,280.359 187.613,279.911 188.044,279.447C188.489,278.993 188.976,278.578 189.439,278.144C189.925,277.732 190.432,277.343 190.931,276.947C191.973,276.21 193.042,275.505 194.188,274.935C195.317,274.334 196.515,273.868 197.728,273.469C198.944,273.07 200.2,272.803 201.468,272.625C202.758,272.456 203.978,272.371 205.394,272.495L205.477,272.502L205.541,272.521L207.255,273.034C207.829,273.195 208.396,273.379 208.946,273.623L210.61,274.301L212.206,275.143C212.75,275.402 213.242,275.757 213.745,276.091C214.243,276.431 214.762,276.741 215.211,277.149C215.672,277.541 216.15,277.912 216.593,278.322L217.856,279.622C218.635,280.543 219.407,281.478 220.025,282.511L220.512,283.271L220.931,284.067C221.201,284.602 221.508,285.121 221.718,285.68C221.941,286.233 222.197,286.776 222.391,287.339L222.951,289.032C223.256,290.178 223.553,291.325 223.744,292.489C223.866,293.068 223.935,293.652 224.01,294.235C224.09,294.818 224.164,295.402 224.198,295.987C224.307,297.156 224.33,298.327 224.35,299.495C224.344,300.663 224.315,301.829 224.239,302.991C224.161,304.153 224.062,305.312 223.916,306.465C223.638,308.771 223.237,311.057 222.735,313.318C222.228,315.584 221.639,317.805 220.883,320.033L220.142,319.038L251.902,317.986L283.667,317.012Z" style="fill:rgb(137,162,170);fill-rule:nonzero;"/>
    </g>
    <g transform="matrix(7.61391,0,0,7.61391,-445.493,-1606.01)">
        <path d="M149.687,281.213L149.527,280.264C149.457,279.943 149.52,279.621 149.511,279.293C149.501,278.962 149.553,278.64 149.62,278.319C149.684,277.998 149.722,277.662 149.845,277.358C149.953,277.049 150.047,276.729 150.17,276.423L150.586,275.526C150.725,275.224 150.906,274.952 151.065,274.662C151.224,274.37 151.405,274.096 151.593,273.827C151.955,273.274 152.373,272.769 152.783,272.254C153.211,271.759 153.646,271.265 154.107,270.799C154.564,270.329 155.039,269.876 155.527,269.436C156.024,268.993 156.513,268.589 157.079,268.171L157.153,268.116L157.339,268.047C160.438,266.895 163.539,265.738 166.682,264.699C169.815,263.628 172.967,262.606 176.165,261.699C179.359,260.78 182.566,259.884 185.885,259.244C187.547,258.918 189.216,258.622 191.004,258.476C191.916,258.419 192.792,258.344 193.962,258.533L194.42,258.627C194.6,258.679 194.785,258.741 194.963,258.807C195.152,258.879 195.404,259.021 195.608,259.147C195.736,259.237 195.873,259.353 195.994,259.468C196.111,259.571 196.239,259.717 196.36,259.907C196.597,260.239 196.754,260.715 196.788,261.131C196.82,261.562 196.752,261.915 196.659,262.21C196.565,262.492 196.45,262.724 196.33,262.92C196.194,263.13 196.116,263.25 195.888,263.501L195.569,263.852L195.093,264.012L188.014,266.397L186.244,266.992L185.359,267.291C185.225,267.338 185.034,267.395 184.946,267.434L184.536,267.593L182.885,268.212C182.351,268.444 181.832,268.701 181.303,268.944C180.761,269.169 180.295,269.494 179.79,269.77C179.277,270.038 178.831,270.38 178.37,270.706C177.888,271.014 177.493,271.399 177.068,271.76C176.628,272.11 176.313,272.552 175.91,272.931C175.593,273.364 175.209,273.766 174.955,274.234C174.653,274.68 174.429,275.161 174.213,275.644C174.019,276.135 173.854,276.636 173.758,277.146C173.706,277.401 173.668,277.654 173.65,277.905C173.624,278.135 173.631,278.443 173.631,278.552L173.62,280.092L172.39,280.186C170.505,280.332 168.613,280.42 166.725,280.539C164.836,280.655 162.947,280.765 161.054,280.843C157.272,281.03 153.484,281.163 149.687,281.213ZM149.687,281.213C153.408,280.454 157.137,279.778 160.872,279.154C162.738,278.827 164.607,278.532 166.477,278.243C168.348,277.958 170.215,277.641 172.088,277.382L170.848,279.015C170.772,278.507 170.765,278.19 170.766,277.8C170.767,277.427 170.795,277.062 170.841,276.701C170.927,275.978 171.1,275.278 171.318,274.593C171.557,273.92 171.822,273.25 172.172,272.635C172.481,271.987 172.915,271.436 173.304,270.844C173.755,270.321 174.18,269.745 174.69,269.287C175.19,268.816 175.679,268.318 176.229,267.924C176.767,267.506 177.299,267.074 177.876,266.735C178.447,266.386 179,265.982 179.597,265.699C180.186,265.395 180.773,265.075 181.369,264.788L183.185,264.018L183.642,263.83C183.841,263.75 183.95,263.718 184.108,263.66L184.989,263.35L186.75,262.73L193.796,260.248L193,260.759C192.911,260.856 192.954,260.809 192.926,260.844C192.914,260.864 192.886,260.908 192.858,260.995C192.825,261.093 192.79,261.241 192.807,261.466C192.815,261.681 192.918,261.949 193.027,262.117C193.098,262.217 193.163,262.282 193.195,262.323C193.239,262.371 193.301,262.415 193.348,262.442C193.368,262.475 193.448,262.5 193.444,262.499C193.428,262.499 193.418,262.493 193.401,262.482L193.253,262.453C192.796,262.358 192.007,262.367 191.28,262.416C189.778,262.515 188.189,262.766 186.614,263.055C185.032,263.334 183.45,263.708 181.857,264.037C180.266,264.385 178.674,264.756 177.085,265.145L172.319,266.351L167.545,267.575L157.994,270.092L158.254,269.968C157.764,270.256 157.243,270.622 156.742,270.966C156.238,271.317 155.744,271.685 155.263,272.07C154.297,272.836 153.388,273.675 152.574,274.593C152.361,274.816 152.155,275.045 151.972,275.289C151.787,275.532 151.576,275.763 151.41,276.019L150.903,276.787C150.747,277.051 150.62,277.328 150.476,277.601C150.318,277.87 150.233,278.162 150.121,278.45C150.005,278.739 149.902,279.032 149.86,279.339C149.816,279.643 149.698,279.95 149.713,280.262L149.687,281.213Z" style="fill:rgb(137,162,170);fill-rule:nonzero;"/>
    </g>
    <g transform="matrix(7.61391,0,0,7.61391,-445.493,-1606.01)">
        <path d="M72.315,270.804C72.526,274.158 72.713,277.512 72.868,280.866L73.295,290.927L72.601,289.99L82.938,292.779L93.249,295.654L92.561,295.601C97.802,294.703 103.061,293.925 108.31,293.085C113.559,292.236 118.824,291.503 124.081,290.715L122.605,291.771L125.355,286.294L128.147,280.839L133.75,269.935L134.959,272.656L131.246,271.779C129.985,271.541 128.705,271.352 127.436,271.135C126.168,270.908 124.862,270.826 123.575,270.664C122.287,270.5 120.986,270.406 119.682,270.324C118.379,270.249 117.081,270.106 115.77,270.066L111.844,269.886L107.907,269.807C106.594,269.767 105.279,269.789 103.964,269.782C101.334,269.745 98.7,269.799 96.065,269.831L88.156,270.051L80.24,270.381L76.278,270.579L72.315,270.804ZM72.315,270.804C77.522,269.831 82.769,269.062 88.034,268.454C90.667,268.139 93.306,267.868 95.949,267.639C98.594,267.436 101.241,267.213 103.896,267.08C106.548,266.917 109.21,266.884 111.872,266.809L115.873,266.808C117.206,266.787 118.544,266.863 119.881,266.914C121.217,266.961 122.555,267.02 123.894,267.152C125.233,267.282 126.573,267.33 127.914,267.529C129.255,267.719 130.598,267.88 131.939,268.096L135.963,268.952L138.29,269.447L137.172,271.674L131.672,282.628L128.914,288.102L126.113,293.553L125.64,294.474L124.637,294.61C119.37,295.325 114.11,296.096 108.834,296.75C103.56,297.414 98.293,298.139 93.01,298.745L92.618,298.79L92.322,298.692L82.162,295.322L72.029,291.865L71.306,291.618L71.335,290.927L71.762,280.866C71.917,277.512 72.104,274.158 72.315,270.804Z" style="fill:rgb(137,162,170);fill-rule:nonzero;"/>
    </g>
    <g transform="matrix(7.61391,0,0,7.61391,-445.493,-1606.01)">
        <path d="M125.052,308.622C125.28,307.809 125.513,306.985 125.769,306.162L126.312,304.987C126.497,304.594 126.671,304.192 126.94,303.844L127.686,302.754L128.593,301.774C129.242,301.147 129.959,300.605 130.83,300.184C131.077,300.077 131.264,299.982 131.523,299.91L132.135,299.736L133.358,299.388L135.805,298.693L140.709,297.358C143.976,296.453 147.258,295.616 150.538,294.767L155.46,293.506L160.393,292.293L159.054,293.57L160.51,287.894L162.034,282.236L162.416,280.815L163.912,280.806L169.81,280.77L172.215,280.755L171.762,283.119C171.309,285.49 170.853,287.855 170.281,290.21C170.01,291.388 169.741,292.568 169.416,293.741C169.104,294.915 168.812,296.092 168.44,297.26L167.909,299.015C167.717,299.598 167.494,300.176 167.288,300.757C167.082,301.337 166.873,301.916 166.619,302.491C166.369,303.067 166.155,303.644 165.874,304.217C165.583,304.788 165.332,305.361 165.008,305.928C164.665,306.496 164.375,307.062 163.943,307.623C163.553,308.182 163.096,308.741 162.474,309.278C162.308,309.411 162.162,309.543 161.976,309.671C161.768,309.798 161.555,309.919 161.34,310.031C161.083,310.139 160.811,310.236 160.496,310.299C160.1,310.325 159.921,310.445 159.096,310.176L159.749,310.308L151.075,310.043C148.184,309.962 145.292,309.809 142.4,309.695C139.509,309.578 136.618,309.395 133.727,309.244C130.835,309.063 127.944,308.865 125.052,308.622ZM125.052,308.622C127.944,308.38 130.835,308.181 133.727,308.001C136.618,307.849 139.509,307.667 142.4,307.55C145.292,307.436 148.184,307.283 151.075,307.202L159.749,306.936L160.402,307.068C160.331,307.035 160.255,307.009 160.178,306.992L160.11,306.974C160.068,306.965 160.022,306.963 159.983,306.965C159.953,306.954 159.919,306.954 159.89,306.964C159.862,306.958 159.874,306.952 159.892,306.948C159.935,306.91 159.979,306.88 160.029,306.856C160.086,306.811 160.156,306.734 160.222,306.678C160.49,306.425 160.799,306.05 161.068,305.616C161.36,305.222 161.597,304.709 161.857,304.246C162.108,303.768 162.318,303.235 162.552,302.733C162.78,302.225 162.96,301.672 163.168,301.144C163.379,300.618 163.555,300.066 163.728,299.513C164.092,298.419 164.426,297.304 164.742,296.178C165.082,295.065 165.352,293.918 165.64,292.78C165.939,291.646 166.187,290.492 166.437,289.339C166.974,287.045 167.359,284.703 167.859,282.391L169.81,284.74L163.912,284.704L165.79,283.275L164.192,288.911L162.526,294.53L162.21,295.595L161.187,295.807L156.213,296.835L151.227,297.816C147.902,298.461 144.579,299.118 141.241,299.707L136.239,300.613L133.731,301.038L132.477,301.251L131.851,301.357C131.697,301.38 131.494,301.454 131.347,301.501C130.662,301.749 129.953,302.151 129.315,302.619L128.384,303.389L127.568,304.301C127.27,304.591 127.063,304.948 126.835,305.294L126.141,306.337L125.052,308.622Z" style="fill:rgb(137,162,170);fill-rule:nonzero;"/>
    </g>
    <g transform="matrix(7.61391,0,0,7.61391,-445.493,-1606.01)">
        <path d="M63.007,305.212C62.721,304.338 62.502,303.464 62.307,302.59C62.121,301.716 61.94,300.842 61.803,299.968C61.523,298.219 61.327,296.471 61.198,294.723L60.944,291.26L64.091,293.276C65.92,294.447 67.685,295.706 69.401,297.03L70.209,297.652L70.197,298.62C70.187,299.492 70.145,300.359 70.097,301.234C70.028,302.106 69.959,302.982 69.832,303.863C69.717,304.744 69.557,305.631 69.326,306.542L69.127,307.241C69.029,307.511 68.966,307.715 68.819,308.027L68.705,308.255C68.669,308.323 68.633,308.4 68.535,308.535C68.451,308.652 68.359,308.763 68.264,308.864C68.065,309.047 67.761,309.225 67.458,309.273C67.076,309.333 66.6,309.166 66.488,309.046C66.395,308.981 66.297,308.899 66.23,308.828L66.105,308.664C65.943,308.428 65.904,308.301 65.823,308.077L66.238,308.579C65.672,308.061 65.13,307.504 64.578,306.965C64.043,306.398 63.506,305.835 63.007,305.212ZM63.007,305.212C63.78,305.41 64.514,305.667 65.252,305.92C65.971,306.201 66.702,306.465 67.407,306.767L67.823,307.269C67.83,307.239 67.89,307.306 67.866,307.235C67.861,307.22 67.853,307.207 67.844,307.195C67.817,307.158 67.765,307.105 67.715,307.072C67.683,307.036 67.325,306.85 67.048,306.929C66.84,306.943 66.627,307.052 66.516,307.178C66.48,307.19 66.447,307.212 66.423,307.239C66.393,307.289 66.395,307.265 66.395,307.232L66.395,307.159L66.416,306.701L66.424,306.13L66.403,304.92L66.363,303.677L66.273,301.158C66.265,300.316 66.215,299.465 66.224,298.62L67.02,300.21C65.267,298.936 63.563,297.597 61.923,296.171L64.815,294.723C64.687,296.471 64.491,298.219 64.211,299.968C64.073,300.842 63.893,301.716 63.707,302.59C63.512,303.464 63.293,304.338 63.007,305.212Z" style="fill:rgb(137,162,170);fill-rule:nonzero;"/>
    </g>
    <g transform="matrix(7.61391,0,0,7.61391,-445.493,-1606.01)">
        <path d="M64.567,280.405C64.309,279.316 64.132,278.228 64.051,277.135C63.942,276.043 63.939,274.944 63.993,273.836C64.032,273.276 64.095,272.719 64.17,272.152C64.217,271.862 64.281,271.575 64.339,271.286C64.385,271.004 64.492,270.69 64.581,270.386C64.659,270.094 64.805,269.76 64.974,269.42L65.097,269.169C65.148,269.078 65.226,268.972 65.293,268.875L65.508,268.583C65.575,268.491 65.651,268.393 65.805,268.269C66.101,268.041 66.283,267.836 66.821,267.668C67.272,267.494 67.843,267.498 68.351,267.63C68.564,267.701 68.776,267.793 68.975,267.9C69.148,268.003 69.281,268.107 69.426,268.223C69.694,268.468 69.847,268.617 70.085,268.984L70.35,269.396L70.362,269.996C70.447,273.979 70.231,277.963 69.465,281.947L69.131,283.683L67.98,282.949C67.391,282.573 66.821,282.153 66.242,281.754C65.676,281.322 65.108,280.896 64.567,280.405ZM64.567,280.405C65.298,280.426 66.003,280.514 66.71,280.597C67.403,280.712 68.105,280.805 68.789,280.944L67.303,281.947C66.538,277.963 66.322,273.979 66.406,269.996L66.684,271.007C66.778,271.153 66.755,271.101 66.828,271.168C66.867,271.206 66.9,271.22 66.962,271.255C67.04,271.307 67.132,271.344 67.225,271.36C67.473,271.453 67.776,271.411 67.979,271.355C68.244,271.227 68.245,271.238 68.325,271.157C68.364,271.104 68.357,271.108 68.347,271.125C68.339,271.134 68.331,271.14 68.319,271.146C68.308,271.155 68.296,271.148 68.278,271.17L68.215,271.269C68.128,271.393 68.032,271.529 67.943,271.74C67.848,271.932 67.738,272.102 67.656,272.334C67.566,272.553 67.482,272.774 67.382,272.993L66.856,274.402C66.699,274.891 66.521,275.379 66.343,275.871C66.166,276.366 66.007,276.87 65.806,277.369C65.603,277.867 65.444,278.378 65.231,278.883C65.033,279.39 64.818,279.897 64.567,280.405Z" style="fill:rgb(137,162,170);fill-rule:nonzero;"/>
    </g>
    <g transform="matrix(7.61391,0,0,7.61391,-445.493,-1606.01)">
        <path d="M142.194,248.052C145.637,245.304 149.084,242.553 152.56,239.836C153.424,239.151 154.324,238.513 155.205,237.849L157.87,235.886C159.658,234.593 161.408,233.246 163.229,231.996L168.698,228.247C170.515,226.988 172.426,225.86 174.287,224.659C175.22,224.062 176.159,223.472 177.129,222.927L180.015,221.252C180.98,220.696 181.992,220.202 182.982,219.681C183.473,219.416 183.991,219.177 184.511,218.941C185.029,218.703 185.531,218.461 186.135,218.233L186.331,218.158L186.604,218.155L202.912,217.906L219.219,217.752L227.372,217.684L235.525,217.658L251.832,217.607L255.854,217.595L253.434,220.79L250.342,224.873C249.32,226.24 248.251,227.576 247.188,228.915C246.128,230.257 245.07,231.599 243.961,232.909L242.319,234.886C241.78,235.551 241.198,236.188 240.635,236.837C239.511,238.135 238.368,239.422 237.172,240.673C236.583,241.305 235.999,241.94 235.372,242.546C234.75,243.156 234.149,243.78 233.503,244.372C232.844,244.957 232.204,245.552 231.529,246.127C230.813,246.678 230.174,247.269 229.394,247.783C228.658,248.32 227.858,248.822 226.958,249.274C226.477,249.486 226.024,249.708 225.401,249.851C225.144,249.94 224.737,249.978 224.369,249.999C224.204,250.019 223.894,249.973 223.665,249.937C223.562,249.926 223.393,249.881 223.211,249.807C223.125,249.773 223.04,249.736 222.958,249.696C222.935,249.688 222.844,249.637 222.753,249.575C222.667,249.518 222.584,249.454 222.507,249.386L223.157,249.768C222.818,249.698 222.564,249.589 222.161,249.53C221.772,249.469 221.405,249.39 221,249.342C220.194,249.24 219.384,249.143 218.55,249.079C216.895,248.929 215.212,248.838 213.53,248.754C210.161,248.606 206.773,248.483 203.383,248.408C196.602,248.252 189.807,248.232 183.009,248.172L142.194,248.052ZM142.194,248.052C148.981,247.519 155.774,247.071 162.57,246.693C169.367,246.311 176.166,245.987 182.971,245.746C189.776,245.479 196.585,245.324 203.407,245.265C206.818,245.246 210.233,245.224 213.661,245.33C215.376,245.384 217.091,245.445 218.828,245.569C219.69,245.619 220.57,245.706 221.453,245.801C222.345,245.913 223.252,246.041 224.301,246.337L224.951,246.719C224.896,246.666 224.835,246.617 224.771,246.573L224.636,246.49C224.603,246.469 224.568,246.451 224.532,246.437C224.448,246.405 224.378,246.394 224.383,246.386C224.366,246.363 224.266,246.386 224.312,246.371C224.366,246.345 224.389,246.376 224.533,246.316C224.744,246.273 225.054,246.116 225.348,245.982C225.958,245.657 226.597,245.25 227.224,244.772C227.859,244.343 228.462,243.764 229.084,243.27C229.692,242.732 230.285,242.158 230.887,241.606C231.479,241.037 232.053,240.431 232.641,239.85C233.233,239.273 233.795,238.654 234.36,238.039C235.504,236.827 236.61,235.568 237.701,234.291C238.247,233.654 238.809,233.033 239.335,232.375L240.936,230.423C242.015,229.133 243.051,227.801 244.088,226.47C245.129,225.143 246.174,223.82 247.178,222.46L250.231,218.413L251.832,221.596L235.525,221.545L227.372,221.52L219.219,221.451L202.912,221.298L186.604,221.049L187.074,220.971C186.643,221.12 186.143,221.337 185.654,221.544C185.165,221.748 184.676,221.954 184.189,222.198C183.218,222.676 182.233,223.114 181.265,223.613L178.369,225.132C177.396,225.623 176.445,226.165 175.498,226.715C173.61,227.821 171.676,228.851 169.82,230.022L164.206,233.465C162.329,234.607 160.515,235.85 158.665,237.039L155.899,238.837C154.979,239.44 154.04,240.015 153.134,240.64C149.508,243.133 145.853,245.592 142.194,248.052Z" style="fill:rgb(137,162,170);fill-rule:nonzero;"/>
    </g>
    <g transform="matrix(7.61391,0,0,7.61391,-445.493,-1606.01)">
        <path d="M237.748,248.176C246.723,247.859 255.697,247.668 264.671,247.503L278.132,247.303C282.619,247.235 287.105,247.19 291.592,247.167L305.051,247.071L318.51,247.058L331.969,247.066L345.427,247.14L343.899,250.365L338.559,244.491L332.809,239.037L329.723,236.56L328.18,235.321C327.665,234.907 327.161,234.481 326.602,234.13L323.328,231.911L321.692,230.8L319.974,229.824L316.539,227.868C315.368,227.268 314.167,226.725 312.984,226.145L311.204,225.287C310.602,225.02 309.981,224.798 309.371,224.55C308.143,224.076 306.928,223.56 305.687,223.119L301.92,221.921C300.665,221.516 299.37,221.261 298.097,220.923C296.824,220.569 295.52,220.375 294.227,220.123C292.935,219.853 291.629,219.696 290.324,219.517C287.715,219.176 285.077,218.996 282.472,219.029C281.797,219.026 281.228,219.06 280.552,219.103L278.614,219.336C277.96,219.402 277.315,219.516 276.67,219.635C276.027,219.76 275.372,219.837 274.737,220.001C272.165,220.528 269.644,221.296 267.181,222.225C264.718,223.156 262.325,224.292 260.039,225.622C257.751,226.95 255.536,228.421 253.442,230.062C251.344,231.697 249.364,233.491 247.487,235.394C245.606,237.295 243.843,239.321 242.218,241.458C240.581,243.587 239.042,245.806 237.748,248.176ZM237.748,248.176C238.85,245.709 240.205,243.352 241.687,241.081C243.182,238.817 244.827,236.646 246.609,234.585C250.185,230.477 254.322,226.807 258.959,223.841C261.276,222.356 263.722,221.06 266.26,219.97C268.801,218.89 271.416,217.946 274.113,217.299C274.78,217.107 275.466,217.001 276.142,216.848C276.82,216.702 277.499,216.56 278.186,216.468L280.257,216.155C280.924,216.09 281.702,216.019 282.376,216.004C285.165,215.881 287.929,215.986 290.679,216.255C292.052,216.404 293.433,216.512 294.788,216.775C296.147,217.012 297.519,217.193 298.857,217.536C300.197,217.863 301.56,218.108 302.881,218.506L306.851,219.686C308.159,220.123 309.441,220.636 310.738,221.11C311.382,221.357 312.037,221.58 312.673,221.848L314.556,222.709C315.806,223.293 317.08,223.834 318.308,224.463L321.92,226.488L323.726,227.501L325.446,228.651L328.886,230.952C329.473,231.318 330.004,231.758 330.544,232.186L332.165,233.469L335.404,236.04C337.407,237.928 339.454,239.776 341.412,241.71L346.921,247.848L349.864,251.126L345.393,251.073L331.935,250.914L318.479,250.69L305.022,250.445L291.566,250.115C287.081,250.015 282.596,249.892 278.111,249.746L264.656,249.314C255.686,248.993 246.716,248.647 237.748,248.176Z" style="fill:rgb(137,162,170);fill-rule:nonzero;"/>
    </g>
    <g transform="matrix(7.61391,0,0,7.61391,-445.493,-1606.01)">
        <path d="M183.394,303.81C183.394,303.81 183.463,303.269 183.591,302.254C183.693,301.234 183.97,299.757 184.375,297.889C184.617,296.965 184.827,295.924 185.208,294.834C185.396,294.289 185.541,293.703 185.765,293.121C185.987,292.538 186.217,291.934 186.456,291.31C187.492,288.847 188.935,286.16 191.041,283.564C191.578,282.926 192.173,282.307 192.792,281.69C193.463,281.127 194.104,280.492 194.892,280.01C195.623,279.446 196.476,279.036 197.336,278.596C198.245,278.262 199.144,277.875 200.212,277.739L200.998,277.602C201.255,277.566 201.477,277.58 201.719,277.567L202.435,277.547L202.794,277.536C202.737,277.532 202.922,277.539 202.922,277.542L202.97,277.548L203.264,277.587C203.785,277.66 204.316,277.722 204.844,277.817C205.358,277.974 205.874,278.132 206.394,278.291C208.424,279.07 210.271,280.367 211.81,281.963C213.385,283.544 214.569,285.453 215.617,287.432C216.665,289.426 217.328,291.586 217.944,293.765C218.458,295.963 218.877,298.215 218.977,300.492C219.094,301.617 219.053,302.798 219.058,303.962C219.045,305.151 218.944,306.097 218.874,307.328C218.386,311.861 217.237,316.352 215.291,320.441C213.324,324.501 210.619,328.254 206.961,330.803C205.133,332.063 203.085,332.971 200.922,333.34C200.358,333.394 199.796,333.447 199.238,333.501C198.737,333.487 198.264,333.443 197.779,333.416L197.336,333.383L196.952,333.298L196.19,333.127C195.94,333.063 195.684,333.026 195.443,332.939L194.732,332.655C193.768,332.329 192.938,331.768 192.119,331.263C191.361,330.664 190.608,330.094 189.999,329.401C189.322,328.774 188.818,328.025 188.271,327.342C187.785,326.615 187.322,325.892 186.921,325.161C185.367,322.203 184.476,319.286 183.944,316.668C183.832,316.01 183.725,315.372 183.622,314.757C183.518,314.142 183.488,313.539 183.412,312.968C183.251,311.824 183.25,310.762 183.194,309.808C183.163,307.898 183.182,306.394 183.282,305.376C183.355,304.355 183.394,303.81 183.394,303.81ZM183.394,303.81C183.394,303.81 183.36,304.355 183.296,305.376C183.211,306.396 183.183,307.9 183.263,309.805C183.376,311.709 183.611,314.025 184.259,316.597C184.927,319.152 185.91,322.014 187.659,324.725C188.098,325.396 188.593,326.051 189.104,326.7C189.672,327.303 190.194,327.968 190.864,328.493C191.477,329.086 192.213,329.528 192.929,330.002C193.699,330.375 194.458,330.802 195.306,330.996L195.927,331.183C196.136,331.238 196.356,331.244 196.57,331.278L197.216,331.363L197.539,331.406C197.517,331.405 197.644,331.416 197.5,331.405L197.545,331.405L197.635,331.402L197.815,331.397C198.293,331.379 198.79,331.378 199.261,331.347C199.666,331.262 200.075,331.177 200.485,331.092C202.184,330.638 203.809,329.713 205.263,328.54C208.178,326.137 210.34,322.656 211.955,318.942C213.468,315.157 214.483,311.085 214.896,306.933C214.945,305.985 215.082,304.757 215.09,303.765C215.086,302.748 215.136,301.747 215.061,300.704L214.986,299.155L214.814,297.62C214.742,296.59 214.506,295.596 214.36,294.584C213.909,292.608 213.402,290.639 212.591,288.841C211.81,287.043 210.908,285.288 209.685,283.864C208.483,282.429 207.089,281.208 205.495,280.422C203.921,279.616 202.114,279.364 200.375,279.507C199.564,279.525 198.711,279.794 197.889,280.009C197.094,280.332 196.287,280.622 195.569,281.08C194.809,281.463 194.166,282.012 193.491,282.491C192.863,283.028 192.249,283.572 191.686,284.144C189.439,286.458 187.911,289.069 186.755,291.443C185.614,293.838 184.927,296.062 184.443,297.906C183.99,299.759 183.723,301.239 183.605,302.255C183.468,303.269 183.394,303.81 183.394,303.81Z" style="fill:rgb(137,162,170);fill-rule:nonzero;"/>
    </g>
    <g transform="matrix(6.57378,0,0,7.61391,-95.3653,-1672.48)">
        <path d="M71.092,344.916L394.645,344.916" style="fill:rgb(137,162,170);stroke:rgb(137,162,170);stroke-width:1.22px;"/>
    </g>
    <g transform="matrix(4.16667,0,0,4.16667,-262.041,-1067.5)">
        <g transform="matrix(0.380193,0,0,0.380193,-12.2685,-76.0385)">
            <path d="M1064.95,1299.66L1064.95,1156.49L1093.47,1156.49L1127.36,1257.86C1130.48,1267.3 1132.76,1274.36 1134.19,1279.05C1135.82,1273.84 1138.36,1266.19 1141.81,1256.1L1176.09,1156.49L1201.57,1156.49L1201.57,1299.66L1183.31,1299.66L1183.31,1179.83L1141.71,1299.66L1124.62,1299.66L1083.21,1177.78L1083.21,1299.66L1064.95,1299.66Z" style="fill:rgb(102,102,102);fill-rule:nonzero;stroke:rgb(102,102,102);stroke-width:5.26px;stroke-linejoin:round;"/>
        </g>
        <g transform="matrix(0.380193,0,0,0.380193,-12.2685,-76.0385)">
            <path d="M1317.39,1282.76L1317.39,1299.66L1222.77,1299.66C1222.63,1295.42 1223.32,1291.36 1224.82,1287.45C1227.23,1281 1231.08,1274.66 1236.39,1268.41C1241.69,1262.16 1249.36,1254.93 1259.39,1246.73C1274.95,1233.97 1285.46,1223.86 1290.93,1216.4C1296.4,1208.95 1299.13,1201.9 1299.13,1195.26C1299.13,1188.3 1296.64,1182.42 1291.66,1177.63C1286.68,1172.85 1280.19,1170.46 1272.18,1170.46C1263.72,1170.46 1256.94,1173 1251.87,1178.08C1246.79,1183.15 1244.22,1190.18 1244.15,1199.17L1226.09,1197.31C1227.32,1183.84 1231.98,1173.57 1240.05,1166.5C1248.12,1159.44 1258.96,1155.91 1272.57,1155.91C1286.31,1155.91 1297.18,1159.71 1305.19,1167.33C1313.19,1174.95 1317.2,1184.39 1317.2,1195.65C1317.2,1201.38 1316.03,1207.01 1313.68,1212.55C1311.34,1218.08 1307.45,1223.91 1302.01,1230.03C1296.58,1236.15 1287.54,1244.55 1274.91,1255.22C1264.37,1264.08 1257.6,1270.08 1254.6,1273.24C1251.61,1276.4 1249.13,1279.57 1247.18,1282.76L1317.39,1282.76Z" style="fill:rgb(102,102,102);fill-rule:nonzero;stroke:rgb(102,102,102);stroke-width:5.26px;stroke-linejoin:round;"/>
        </g>
        <g transform="matrix(0.380193,0,0,0.380193,-12.2685,-76.0385)">
            <path d="M1336.34,1261.86L1353.92,1259.52C1355.94,1269.48 1359.37,1276.66 1364.22,1281.05C1369.07,1285.45 1374.98,1287.64 1381.94,1287.64C1390.21,1287.64 1397.2,1284.78 1402.89,1279.05C1408.59,1273.32 1411.44,1266.23 1411.44,1257.76C1411.44,1249.69 1408.8,1243.03 1403.53,1237.79C1398.25,1232.55 1391.55,1229.93 1383.41,1229.93C1380.09,1229.93 1375.96,1230.58 1371.01,1231.88L1372.96,1216.45C1374.13,1216.58 1375.08,1216.65 1375.79,1216.65C1383.28,1216.65 1390.02,1214.7 1396.01,1210.79C1402,1206.88 1404.99,1200.86 1404.99,1192.72C1404.99,1186.28 1402.81,1180.94 1398.45,1176.71C1394.09,1172.48 1388.46,1170.36 1381.56,1170.36C1374.72,1170.36 1369.02,1172.51 1364.46,1176.81C1359.91,1181.1 1356.98,1187.55 1355.68,1196.14L1338.1,1193.02C1340.25,1181.23 1345.13,1172.1 1352.75,1165.62C1360.36,1159.15 1369.84,1155.91 1381.16,1155.91C1388.98,1155.91 1396.17,1157.58 1402.75,1160.94C1409.32,1164.29 1414.35,1168.86 1417.83,1174.66C1421.32,1180.45 1423.06,1186.6 1423.06,1193.11C1423.06,1199.3 1421.4,1204.93 1418.08,1210.01C1414.76,1215.09 1409.84,1219.12 1403.33,1222.12C1411.8,1224.07 1418.37,1228.12 1423.06,1234.28C1427.75,1240.43 1430.09,1248.13 1430.09,1257.37C1430.09,1269.87 1425.53,1280.47 1416.42,1289.16C1407.3,1297.85 1395.78,1302.2 1381.85,1302.2C1369.28,1302.2 1358.85,1298.45 1350.55,1290.96C1342.25,1283.48 1337.51,1273.78 1336.34,1261.86Z" style="fill:rgb(102,102,102);fill-rule:nonzero;stroke:rgb(102,102,102);stroke-width:5.26px;stroke-linejoin:round;"/>
        </g>
    </g>
    <g transform="matrix(1.58414,0,0,1.58414,-396.444,-1384.02)">
        <path d="M1509.39,1299.66L1509.39,1156.49L1528.33,1156.49L1528.33,1282.76L1598.84,1282.76L1598.84,1299.66L1509.39,1299.66Z" style="fill:rgb(102,102,102);fill-rule:nonzero;stroke:rgb(102,102,102);stroke-width:5.26px;stroke-linejoin:round;"/>
    </g>
    <g transform="matrix(3.62097,0,0,3.62097,55.0436,-838.833)">
        <g transform="matrix(0.380193,0,0,0.380193,-32.2565,-75.9642)">
            <path d="M1686.83,1286.86C1680.32,1292.4 1674.05,1296.3 1668.03,1298.58C1662.01,1300.86 1655.55,1302 1648.64,1302C1637.25,1302 1628.5,1299.22 1622.38,1293.65C1616.26,1288.08 1613.19,1280.97 1613.19,1272.31C1613.19,1267.24 1614.35,1262.6 1616.66,1258.4C1618.97,1254.2 1622,1250.83 1625.74,1248.29C1629.49,1245.75 1633.7,1243.83 1638.39,1242.53C1641.84,1241.62 1647.05,1240.74 1654.02,1239.89C1668.21,1238.2 1678.66,1236.18 1685.36,1233.84C1685.43,1231.43 1685.46,1229.9 1685.46,1229.25C1685.46,1222.09 1683.8,1217.04 1680.48,1214.11C1675.99,1210.14 1669.32,1208.15 1660.46,1208.15C1652.19,1208.15 1646.09,1209.6 1642.15,1212.5C1638.21,1215.4 1635.3,1220.52 1633.41,1227.88L1616.22,1225.54C1617.79,1218.18 1620.36,1212.24 1623.94,1207.71C1627.52,1203.19 1632.69,1199.71 1639.47,1197.26C1646.24,1194.82 1654.08,1193.6 1663,1193.6C1671.85,1193.6 1679.05,1194.64 1684.58,1196.73C1690.12,1198.81 1694.18,1201.43 1696.79,1204.59C1699.39,1207.75 1701.22,1211.73 1702.26,1216.55C1702.84,1219.55 1703.14,1224.95 1703.14,1232.76L1703.14,1256.2C1703.14,1272.54 1703.51,1282.88 1704.26,1287.21C1705.01,1291.54 1706.49,1295.68 1708.7,1299.66L1690.34,1299.66C1688.52,1296.01 1687.35,1291.75 1686.83,1286.86ZM1685.36,1247.61C1678.98,1250.21 1669.41,1252.42 1656.65,1254.25C1649.43,1255.29 1644.32,1256.46 1641.32,1257.76C1638.33,1259.06 1636.01,1260.97 1634.39,1263.48C1632.76,1265.98 1631.94,1268.77 1631.94,1271.83C1631.94,1276.51 1633.72,1280.42 1637.27,1283.54C1640.82,1286.67 1646.01,1288.23 1652.84,1288.23C1659.61,1288.23 1665.64,1286.75 1670.91,1283.79C1676.18,1280.83 1680.06,1276.77 1682.53,1271.63C1684.42,1267.66 1685.36,1261.8 1685.36,1254.05L1685.36,1247.61Z" style="fill:rgb(102,102,102);fill-rule:nonzero;stroke:rgb(102,102,102);stroke-width:6.05px;stroke-linejoin:round;"/>
        </g>
        <g transform="matrix(0.380193,0,0,0.380193,-32.2565,-75.9642)">
            <path d="M1749.52,1299.66L1717.79,1195.95L1735.95,1195.95L1752.45,1255.81L1758.61,1278.08C1758.87,1276.97 1760.66,1269.84 1763.98,1256.69L1780.48,1195.95L1798.55,1195.95L1814.07,1256.1L1819.25,1275.93L1825.21,1255.91L1842.98,1195.95L1860.07,1195.95L1827.65,1299.66L1809.39,1299.66L1792.88,1237.55L1788.88,1219.87L1767.88,1299.66L1749.52,1299.66Z" style="fill:rgb(102,102,102);fill-rule:nonzero;stroke:rgb(102,102,102);stroke-width:6.05px;stroke-linejoin:round;"/>
        </g>
    </g>
    <g transform="matrix(1.86807,0,0,1.80928,-1602.91,-1076.7)">
        <g transform="matrix(0.978199,0,0,1.00998,22.8935,-11.5441)">
            <path d="M1057.53,1228.03L1057.53,1156.44L1071.79,1156.44L1088.73,1207.13C1090.3,1211.85 1091.43,1215.38 1092.15,1217.72C1092.96,1215.12 1094.23,1211.29 1095.96,1206.25L1113.1,1156.44L1125.84,1156.44L1125.84,1228.03L1116.71,1228.03L1116.71,1168.11L1095.91,1228.03L1087.37,1228.03L1066.66,1167.09L1066.66,1228.03L1057.53,1228.03Z" style="fill:rgb(102,102,102);fill-rule:nonzero;"/>
        </g>
        <g transform="matrix(0.978199,0,0,1.00998,22.8935,-11.5441)">
            <path d="M1139.73,1202.1C1139.73,1192.5 1142.4,1185.38 1147.74,1180.76C1152.2,1176.92 1157.63,1175 1164.05,1175C1171.18,1175 1177,1177.33 1181.53,1182.01C1186.05,1186.68 1188.31,1193.13 1188.31,1201.37C1188.31,1208.04 1187.31,1213.29 1185.31,1217.11C1183.31,1220.94 1180.4,1223.91 1176.57,1226.02C1172.75,1228.14 1168.57,1229.2 1164.05,1229.2C1156.79,1229.2 1150.92,1226.87 1146.44,1222.21C1141.97,1217.56 1139.73,1210.86 1139.73,1202.1ZM1148.76,1202.1C1148.76,1208.74 1150.21,1213.71 1153.11,1217.02C1156.01,1220.32 1159.65,1221.97 1164.05,1221.97C1168.41,1221.97 1172.04,1220.31 1174.93,1216.99C1177.83,1213.67 1179.28,1208.61 1179.28,1201.81C1179.28,1195.39 1177.82,1190.53 1174.91,1187.23C1172,1183.93 1168.38,1182.27 1164.05,1182.27C1159.65,1182.27 1156.01,1183.92 1153.11,1187.21C1150.21,1190.49 1148.76,1195.46 1148.76,1202.1Z" style="fill:rgb(102,102,102);fill-rule:nonzero;"/>
        </g>
        <g transform="matrix(0.978199,0,0,1.00998,22.8935,-11.5441)">
            <path d="M1220.81,1220.16L1222.08,1227.93C1219.6,1228.45 1217.39,1228.71 1215.43,1228.71C1212.25,1228.71 1209.77,1228.2 1208.01,1227.2C1206.26,1226.19 1205.02,1224.86 1204.3,1223.22C1203.59,1221.57 1203.23,1218.11 1203.23,1212.84L1203.23,1183.01L1196.78,1183.01L1196.78,1176.17L1203.23,1176.17L1203.23,1163.33L1211.97,1158.06L1211.97,1176.17L1220.81,1176.17L1220.81,1183.01L1211.97,1183.01L1211.97,1213.33C1211.97,1215.84 1212.12,1217.45 1212.43,1218.16C1212.74,1218.88 1213.25,1219.45 1213.95,1219.87C1214.65,1220.3 1215.65,1220.51 1216.95,1220.51C1217.93,1220.51 1219.21,1220.39 1220.81,1220.16Z" style="fill:rgb(102,102,102);fill-rule:nonzero;"/>
        </g>
        <g transform="matrix(0.978199,0,0,1.00998,22.8935,-11.5441)">
            <path d="M1229.13,1202.1C1229.13,1192.5 1231.8,1185.38 1237.14,1180.76C1241.6,1176.92 1247.03,1175 1253.44,1175C1260.57,1175 1266.4,1177.33 1270.93,1182.01C1275.45,1186.68 1277.71,1193.13 1277.71,1201.37C1277.71,1208.04 1276.71,1213.29 1274.71,1217.11C1272.71,1220.94 1269.8,1223.91 1265.97,1226.02C1262.14,1228.14 1257.97,1229.2 1253.44,1229.2C1246.19,1229.2 1240.32,1226.87 1235.84,1222.21C1231.37,1217.56 1229.13,1210.86 1229.13,1202.1ZM1238.16,1202.1C1238.16,1208.74 1239.61,1213.71 1242.51,1217.02C1245.4,1220.32 1249.05,1221.97 1253.44,1221.97C1257.81,1221.97 1261.44,1220.31 1264.33,1216.99C1267.23,1213.67 1268.68,1208.61 1268.68,1201.81C1268.68,1195.39 1267.22,1190.53 1264.31,1187.23C1261.4,1183.93 1257.78,1182.27 1253.44,1182.27C1249.05,1182.27 1245.4,1183.92 1242.51,1187.21C1239.61,1190.49 1238.16,1195.46 1238.16,1202.1Z" style="fill:rgb(102,102,102);fill-rule:nonzero;"/>
        </g>
        <g transform="matrix(0.978199,0,0,1.00998,22.8935,-11.5441)">
            <path d="M1290.92,1228.03L1290.92,1176.17L1298.83,1176.17L1298.83,1184.03C1300.85,1180.35 1302.71,1177.93 1304.42,1176.76C1306.13,1175.58 1308.01,1175 1310.06,1175C1313.02,1175 1316.03,1175.94 1319.09,1177.83L1316.06,1185.99C1313.92,1184.71 1311.77,1184.08 1309.62,1184.08C1307.7,1184.08 1305.97,1184.66 1304.44,1185.81C1302.91,1186.97 1301.82,1188.57 1301.17,1190.62C1300.19,1193.75 1299.71,1197.17 1299.71,1200.88L1299.71,1228.03L1290.92,1228.03Z" style="fill:rgb(102,102,102);fill-rule:nonzero;"/>
        </g>
        <g transform="matrix(0.978199,0,0,1.00998,22.8935,-11.5441)">
            <path d="M1327.37,1166.55L1327.37,1156.44L1336.15,1156.44L1336.15,1166.55L1327.37,1166.55ZM1327.37,1228.03L1327.37,1176.17L1336.15,1176.17L1336.15,1228.03L1327.37,1228.03Z" style="fill:rgb(102,102,102);fill-rule:nonzero;"/>
        </g>
        <g transform="matrix(0.978199,0,0,1.00998,22.8935,-11.5441)">
            <path d="M1352.53,1228.03L1352.53,1176.17L1360.44,1176.17L1360.44,1183.54C1364.25,1177.85 1369.75,1175 1376.95,1175C1380.07,1175 1382.94,1175.56 1385.57,1176.68C1388.19,1177.81 1390.15,1179.28 1391.45,1181.1C1392.75,1182.92 1393.66,1185.09 1394.18,1187.6C1394.51,1189.22 1394.67,1192.07 1394.67,1196.14L1394.67,1228.03L1385.88,1228.03L1385.88,1196.48C1385.88,1192.9 1385.54,1190.23 1384.86,1188.45C1384.17,1186.68 1382.96,1185.26 1381.22,1184.2C1379.48,1183.14 1377.43,1182.62 1375.09,1182.62C1371.35,1182.62 1368.12,1183.8 1365.4,1186.18C1362.68,1188.56 1361.32,1193.07 1361.32,1199.71L1361.32,1228.03L1352.53,1228.03Z" style="fill:rgb(102,102,102);fill-rule:nonzero;"/>
        </g>
        <g transform="matrix(0.978199,0,0,1.00998,22.8935,-11.5441)">
            <path d="M1409.54,1232.32L1418.08,1233.59C1418.44,1236.23 1419.43,1238.15 1421.06,1239.35C1423.24,1240.98 1426.22,1241.8 1430,1241.8C1434.07,1241.8 1437.21,1240.98 1439.42,1239.35C1441.63,1237.73 1443.13,1235.45 1443.91,1232.52C1444.37,1230.73 1444.58,1226.97 1444.55,1221.24C1440.71,1225.76 1435.92,1228.03 1430.19,1228.03C1423.06,1228.03 1417.55,1225.45 1413.64,1220.31C1409.73,1215.17 1407.78,1209 1407.78,1201.81C1407.78,1196.86 1408.67,1192.29 1410.46,1188.11C1412.26,1183.93 1414.85,1180.69 1418.25,1178.42C1421.65,1176.14 1425.65,1175 1430.24,1175C1436.36,1175 1441.41,1177.47 1445.38,1182.42L1445.38,1176.17L1453.48,1176.17L1453.48,1221C1453.48,1229.07 1452.66,1234.79 1451.02,1238.16C1449.37,1241.53 1446.77,1244.19 1443.2,1246.14C1439.64,1248.09 1435.25,1249.07 1430.05,1249.07C1423.86,1249.07 1418.86,1247.68 1415.06,1244.9C1411.25,1242.11 1409.41,1237.92 1409.54,1232.32ZM1416.81,1201.17C1416.81,1207.97 1418.16,1212.94 1420.87,1216.06C1423.57,1219.19 1426.95,1220.75 1431.02,1220.75C1435.06,1220.75 1438.44,1219.2 1441.18,1216.09C1443.91,1212.98 1445.28,1208.1 1445.28,1201.46C1445.28,1195.12 1443.87,1190.33 1441.06,1187.11C1438.24,1183.88 1434.85,1182.27 1430.88,1182.27C1426.97,1182.27 1423.65,1183.86 1420.91,1187.04C1418.18,1190.21 1416.81,1194.92 1416.81,1201.17Z" style="fill:rgb(102,102,102);fill-rule:nonzero;"/>
        </g>
        <g transform="matrix(0.978199,0,0,1.00998,22.8935,-11.5441)">
            <path d="M1501.28,1228.03L1501.28,1156.44L1510.75,1156.44L1510.75,1219.58L1546.01,1219.58L1546.01,1228.03L1501.28,1228.03Z" style="fill:rgb(102,102,102);fill-rule:nonzero;"/>
        </g>
        <g transform="matrix(0.978199,0,0,1.00998,22.8935,-11.5441)">
            <path d="M1593,1221.63C1589.75,1224.4 1586.61,1226.35 1583.6,1227.49C1580.59,1228.63 1577.36,1229.2 1573.91,1229.2C1568.21,1229.2 1563.83,1227.81 1560.77,1225.02C1557.71,1222.24 1556.18,1218.68 1556.18,1214.35C1556.18,1211.82 1556.76,1209.5 1557.92,1207.4C1559.07,1205.3 1560.59,1203.61 1562.46,1202.34C1564.33,1201.07 1566.44,1200.11 1568.78,1199.46C1570.51,1199.01 1573.11,1198.57 1576.59,1198.14C1583.69,1197.3 1588.91,1196.29 1592.27,1195.12C1592.3,1193.91 1592.32,1193.15 1592.32,1192.82C1592.32,1189.24 1591.49,1186.72 1589.83,1185.25C1587.58,1183.27 1584.24,1182.27 1579.82,1182.27C1575.68,1182.27 1572.63,1183 1570.66,1184.45C1568.69,1185.89 1567.24,1188.46 1566.29,1192.14L1557.7,1190.96C1558.48,1187.29 1559.76,1184.32 1561.56,1182.05C1563.35,1179.79 1565.93,1178.05 1569.32,1176.83C1572.7,1175.61 1576.63,1175 1581.09,1175C1585.51,1175 1589.11,1175.52 1591.88,1176.56C1594.64,1177.6 1596.68,1178.91 1597.98,1180.49C1599.28,1182.07 1600.19,1184.06 1600.72,1186.47C1601.01,1187.97 1601.15,1190.67 1601.15,1194.58L1601.15,1206.3C1601.15,1214.47 1601.34,1219.64 1601.72,1221.8C1602.09,1223.96 1602.83,1226.04 1603.94,1228.03L1594.76,1228.03C1593.85,1226.2 1593.26,1224.07 1593,1221.63ZM1592.27,1202C1589.08,1203.3 1584.29,1204.41 1577.91,1205.32C1574.3,1205.84 1571.74,1206.43 1570.25,1207.08C1568.75,1207.73 1567.59,1208.68 1566.78,1209.93C1565.97,1211.19 1565.56,1212.58 1565.56,1214.11C1565.56,1216.45 1566.45,1218.41 1568.22,1219.97C1569.99,1221.53 1572.59,1222.31 1576.01,1222.31C1579.39,1222.31 1582.4,1221.57 1585.04,1220.09C1587.68,1218.61 1589.61,1216.58 1590.85,1214.01C1591.8,1212.03 1592.27,1209.1 1592.27,1205.22L1592.27,1202Z" style="fill:rgb(102,102,102);fill-rule:nonzero;"/>
        </g>
        <g transform="matrix(0.978199,0,0,1.00998,22.8935,-11.5441)">
            <path d="M1627.35,1228.03L1611.48,1176.17L1620.56,1176.17L1628.81,1206.1L1631.89,1217.24C1632.02,1216.68 1632.91,1213.12 1634.57,1206.54L1642.83,1176.17L1651.86,1176.17L1659.62,1206.25L1662.21,1216.16L1665.19,1206.15L1674.08,1176.17L1682.62,1176.17L1666.41,1228.03L1657.28,1228.03L1649.03,1196.97L1647.03,1188.13L1636.53,1228.03L1627.35,1228.03Z" style="fill:rgb(102,102,102);fill-rule:nonzero;"/>
        </g>
        <g transform="matrix(0.978199,0,0,1.00998,22.8935,-11.5441)">
            <path d="M1721.68,1205.03L1730.61,1204.25C1731.04,1207.83 1732.02,1210.77 1733.57,1213.06C1735.11,1215.36 1737.51,1217.21 1740.77,1218.63C1744.03,1220.04 1747.69,1220.75 1751.76,1220.75C1755.37,1220.75 1758.56,1220.21 1761.33,1219.14C1764.09,1218.07 1766.15,1216.59 1767.5,1214.72C1768.85,1212.85 1769.53,1210.81 1769.53,1208.59C1769.53,1206.35 1768.88,1204.38 1767.58,1202.71C1766.27,1201.03 1764.13,1199.62 1761.13,1198.49C1759.21,1197.74 1754.96,1196.57 1748.39,1194.99C1741.81,1193.41 1737.2,1191.93 1734.57,1190.53C1731.15,1188.74 1728.6,1186.51 1726.93,1183.86C1725.25,1181.21 1724.41,1178.24 1724.41,1174.95C1724.41,1171.34 1725.44,1167.96 1727.49,1164.82C1729.54,1161.68 1732.53,1159.29 1736.47,1157.66C1740.41,1156.04 1744.79,1155.22 1749.61,1155.22C1754.91,1155.22 1759.59,1156.08 1763.64,1157.79C1767.7,1159.5 1770.82,1162.01 1773,1165.33C1775.18,1168.65 1776.35,1172.41 1776.51,1176.61L1767.43,1177.29C1766.94,1172.77 1765.29,1169.35 1762.47,1167.04C1759.66,1164.73 1755.5,1163.57 1750,1163.57C1744.27,1163.57 1740.09,1164.62 1737.47,1166.72C1734.85,1168.82 1733.54,1171.35 1733.54,1174.32C1733.54,1176.89 1734.47,1179 1736.33,1180.66C1738.15,1182.32 1742.91,1184.02 1750.61,1185.77C1758.31,1187.51 1763.59,1189.03 1766.45,1190.33C1770.62,1192.25 1773.7,1194.68 1775.68,1197.63C1777.67,1200.58 1778.66,1203.97 1778.66,1207.81C1778.66,1211.62 1777.57,1215.21 1775.39,1218.58C1773.21,1221.95 1770.07,1224.57 1765.99,1226.44C1761.9,1228.31 1757.31,1229.25 1752.19,1229.25C1745.72,1229.25 1740.29,1228.3 1735.91,1226.41C1731.53,1224.53 1728.1,1221.69 1725.61,1217.89C1723.12,1214.1 1721.81,1209.81 1721.68,1205.03Z" style="fill:rgb(102,102,102);fill-rule:nonzero;"/>
        </g>
        <g transform="matrix(0.978199,0,0,1.00998,22.8935,-11.5441)">
            <path d="M1793.48,1247.9L1793.48,1176.17L1801.48,1176.17L1801.48,1182.91C1803.37,1180.27 1805.5,1178.29 1807.88,1176.98C1810.26,1175.66 1813.14,1175 1816.52,1175C1820.95,1175 1824.86,1176.14 1828.24,1178.42C1831.63,1180.69 1834.18,1183.91 1835.91,1188.06C1837.63,1192.21 1838.5,1196.76 1838.5,1201.71C1838.5,1207.01 1837.54,1211.79 1835.64,1216.04C1833.74,1220.29 1830.97,1223.54 1827.34,1225.8C1823.71,1228.07 1819.89,1229.2 1815.89,1229.2C1812.96,1229.2 1810.33,1228.58 1808,1227.34C1805.67,1226.11 1803.76,1224.54 1802.27,1222.65L1802.27,1247.9L1793.48,1247.9ZM1801.43,1202.39C1801.43,1209.06 1802.79,1214 1805.49,1217.19C1808.19,1220.38 1811.46,1221.97 1815.3,1221.97C1819.21,1221.97 1822.55,1220.32 1825.34,1217.02C1828.12,1213.71 1829.51,1208.59 1829.51,1201.66C1829.51,1195.05 1828.15,1190.1 1825.43,1186.82C1822.72,1183.53 1819.47,1181.88 1815.69,1181.88C1811.95,1181.88 1808.64,1183.63 1805.76,1187.13C1802.88,1190.63 1801.43,1195.72 1801.43,1202.39Z" style="fill:rgb(102,102,102);fill-rule:nonzero;"/>
        </g>
        <g transform="matrix(0.978199,0,0,1.00998,22.8935,-11.5441)">
            <path d="M1887.59,1211.33L1896.67,1212.45C1895.24,1217.76 1892.59,1221.87 1888.71,1224.8C1884.84,1227.73 1879.89,1229.2 1873.87,1229.2C1866.28,1229.2 1860.27,1226.86 1855.83,1222.19C1851.38,1217.52 1849.16,1210.97 1849.16,1202.54C1849.16,1193.81 1851.41,1187.04 1855.9,1182.23C1860.39,1177.41 1866.22,1175 1873.38,1175C1880.31,1175 1885.98,1177.36 1890.37,1182.08C1894.77,1186.8 1896.97,1193.44 1896.97,1202C1896.97,1202.52 1896.95,1203.3 1896.92,1204.34L1858.24,1204.34C1858.57,1210.04 1860.18,1214.4 1863.08,1217.43C1865.98,1220.46 1869.59,1221.97 1873.92,1221.97C1877.14,1221.97 1879.89,1221.12 1882.17,1219.43C1884.45,1217.74 1886.26,1215.04 1887.59,1211.33ZM1858.73,1197.12L1887.69,1197.12C1887.3,1192.76 1886.19,1189.48 1884.37,1187.3C1881.57,1183.92 1877.94,1182.23 1873.48,1182.23C1869.44,1182.23 1866.05,1183.58 1863.3,1186.28C1860.55,1188.98 1859.03,1192.59 1858.73,1197.12Z" style="fill:rgb(102,102,102);fill-rule:nonzero;"/>
        </g>
        <g transform="matrix(0.978199,0,0,1.00998,22.8935,-11.5441)">
            <path d="M1944.55,1209.03L1953.19,1210.15C1952.24,1216.11 1949.83,1220.78 1945.94,1224.14C1942.05,1227.51 1937.27,1229.2 1931.61,1229.2C1924.51,1229.2 1918.8,1226.88 1914.49,1222.24C1910.18,1217.6 1908.02,1210.95 1908.02,1202.29C1908.02,1196.69 1908.95,1191.8 1910.81,1187.6C1912.66,1183.4 1915.48,1180.25 1919.28,1178.15C1923.07,1176.05 1927.19,1175 1931.65,1175C1937.29,1175 1941.89,1176.42 1945.47,1179.27C1949.05,1182.12 1951.35,1186.16 1952.36,1191.4L1943.81,1192.72C1943,1189.24 1941.56,1186.62 1939.49,1184.86C1937.42,1183.1 1934.93,1182.23 1932,1182.23C1927.57,1182.23 1923.97,1183.81 1921.2,1186.99C1918.44,1190.16 1917.06,1195.18 1917.06,1202.05C1917.06,1209.02 1918.39,1214.08 1921.06,1217.24C1923.73,1220.39 1927.21,1221.97 1931.51,1221.97C1934.96,1221.97 1937.84,1220.91 1940.15,1218.8C1942.46,1216.68 1943.93,1213.43 1944.55,1209.03Z" style="fill:rgb(102,102,102);fill-rule:nonzero;"/>
        </g>
        <g transform="matrix(0.978199,0,0,1.00998,22.8935,-11.5441)">
            <path d="M1963.76,1166.55L1963.76,1156.44L1972.55,1156.44L1972.55,1166.55L1963.76,1166.55ZM1963.76,1228.03L1963.76,1176.17L1972.55,1176.17L1972.55,1228.03L1963.76,1228.03Z" style="fill:rgb(102,102,102);fill-rule:nonzero;"/>
        </g>
        <g transform="matrix(0.978199,0,0,1.00998,22.8935,-11.5441)">
            <path d="M2022.76,1221.63C2019.51,1224.4 2016.37,1226.35 2013.36,1227.49C2010.35,1228.63 2007.12,1229.2 2003.67,1229.2C1997.97,1229.2 1993.6,1227.81 1990.54,1225.02C1987.48,1222.24 1985.94,1218.68 1985.94,1214.35C1985.94,1211.82 1986.52,1209.5 1987.68,1207.4C1988.83,1205.3 1990.35,1203.61 1992.22,1202.34C1994.09,1201.07 1996.2,1200.11 1998.54,1199.46C2000.27,1199.01 2002.87,1198.57 2006.36,1198.14C2013.45,1197.3 2018.68,1196.29 2022.03,1195.12C2022.06,1193.91 2022.08,1193.15 2022.08,1192.82C2022.08,1189.24 2021.25,1186.72 2019.59,1185.25C2017.34,1183.27 2014.01,1182.27 2009.58,1182.27C2005.44,1182.27 2002.39,1183 2000.42,1184.45C1998.45,1185.89 1997,1188.46 1996.05,1192.14L1987.46,1190.96C1988.24,1187.29 1989.53,1184.32 1991.32,1182.05C1993.11,1179.79 1995.69,1178.05 1999.08,1176.83C2002.47,1175.61 2006.39,1175 2010.85,1175C2015.28,1175 2018.87,1175.52 2021.64,1176.56C2024.41,1177.6 2026.44,1178.91 2027.74,1180.49C2029.04,1182.07 2029.96,1184.06 2030.48,1186.47C2030.77,1187.97 2030.92,1190.67 2030.92,1194.58L2030.92,1206.3C2030.92,1214.47 2031.1,1219.64 2031.48,1221.8C2031.85,1223.96 2032.59,1226.04 2033.7,1228.03L2024.52,1228.03C2023.61,1226.2 2023.02,1224.07 2022.76,1221.63ZM2022.03,1202C2018.84,1203.3 2014.05,1204.41 2007.67,1205.32C2004.06,1205.84 2001.51,1206.43 2000.01,1207.08C1998.51,1207.73 1997.36,1208.68 1996.54,1209.93C1995.73,1211.19 1995.32,1212.58 1995.32,1214.11C1995.32,1216.45 1996.21,1218.41 1997.98,1219.97C1999.76,1221.53 2002.35,1222.31 2005.77,1222.31C2009.15,1222.31 2012.17,1221.57 2014.8,1220.09C2017.44,1218.61 2019.38,1216.58 2020.61,1214.01C2021.56,1212.03 2022.03,1209.1 2022.03,1205.22L2022.03,1202Z" style="fill:rgb(102,102,102);fill-rule:nonzero;"/>
        </g>
        <g transform="matrix(0.978199,0,0,1.00998,22.8935,-11.5441)">
            <rect x="2047.34" y="1156.44" width="8.789" height="71.582" style="fill:rgb(102,102,102);fill-rule:nonzero;"/>
        </g>
        <g transform="matrix(0.978199,0,0,1.00998,22.8935,-11.5441)">
            <path d="M2072.8,1166.55L2072.8,1156.44L2081.59,1156.44L2081.59,1166.55L2072.8,1166.55ZM2072.8,1228.03L2072.8,1176.17L2081.59,1176.17L2081.59,1228.03L2072.8,1228.03Z" style="fill:rgb(102,102,102);fill-rule:nonzero;"/>
        </g>
        <g transform="matrix(0.978199,0,0,1.00998,22.8935,-11.5441)">
            <path d="M2094.46,1212.55L2103.15,1211.18C2103.64,1214.66 2105,1217.33 2107.22,1219.19C2109.45,1221.04 2112.57,1221.97 2116.58,1221.97C2120.61,1221.97 2123.61,1221.15 2125.56,1219.51C2127.51,1217.86 2128.49,1215.93 2128.49,1213.72C2128.49,1211.73 2127.63,1210.17 2125.9,1209.03C2124.7,1208.25 2121.7,1207.26 2116.92,1206.05C2110.47,1204.43 2106.01,1203.02 2103.51,1201.83C2101.02,1200.64 2099.14,1199 2097.85,1196.9C2096.57,1194.8 2095.92,1192.48 2095.92,1189.94C2095.92,1187.63 2096.45,1185.49 2097.51,1183.52C2098.57,1181.55 2100.01,1179.91 2101.83,1178.61C2103.2,1177.6 2105.06,1176.75 2107.42,1176.05C2109.78,1175.35 2112.31,1175 2115.01,1175C2119.08,1175 2122.66,1175.58 2125.73,1176.76C2128.81,1177.93 2131.08,1179.52 2132.54,1181.52C2134.01,1183.52 2135.02,1186.2 2135.57,1189.55L2126.98,1190.72C2126.59,1188.05 2125.45,1185.97 2123.58,1184.47C2121.71,1182.97 2119.07,1182.23 2115.65,1182.23C2111.61,1182.23 2108.73,1182.89 2107.01,1184.23C2105.28,1185.56 2104.42,1187.12 2104.42,1188.91C2104.42,1190.05 2104.78,1191.08 2105.49,1191.99C2106.21,1192.93 2107.33,1193.72 2108.86,1194.33C2109.74,1194.66 2112.33,1195.41 2116.62,1196.58C2122.84,1198.24 2127.18,1199.6 2129.64,1200.66C2132.1,1201.72 2134.02,1203.25 2135.42,1205.27C2136.82,1207.29 2137.52,1209.8 2137.52,1212.79C2137.52,1215.72 2136.67,1218.48 2134.96,1221.07C2133.25,1223.66 2130.78,1225.66 2127.56,1227.07C2124.34,1228.49 2120.69,1229.2 2116.62,1229.2C2109.89,1229.2 2104.75,1227.8 2101.22,1225C2097.69,1222.2 2095.43,1218.05 2094.46,1212.55Z" style="fill:rgb(102,102,102);fill-rule:nonzero;"/>
        </g>
        <g transform="matrix(0.978199,0,0,1.00998,22.8935,-11.5441)">
            <path d="M2170.16,1220.16L2171.43,1227.93C2168.96,1228.45 2166.74,1228.71 2164.79,1228.71C2161.6,1228.71 2159.13,1228.2 2157.37,1227.2C2155.61,1226.19 2154.37,1224.86 2153.66,1223.22C2152.94,1221.57 2152.58,1218.11 2152.58,1212.84L2152.58,1183.01L2146.14,1183.01L2146.14,1176.17L2152.58,1176.17L2152.58,1163.33L2161.32,1158.06L2161.32,1176.17L2170.16,1176.17L2170.16,1183.01L2161.32,1183.01L2161.32,1213.33C2161.32,1215.84 2161.48,1217.45 2161.79,1218.16C2162.1,1218.88 2162.6,1219.45 2163.3,1219.87C2164,1220.3 2165,1220.51 2166.3,1220.51C2167.28,1220.51 2168.57,1220.39 2170.16,1220.16Z" style="fill:rgb(102,102,102);fill-rule:nonzero;"/>
        </g>
        <g transform="matrix(0.978199,0,0,1.00998,22.8935,-11.5441)">
            <path d="M2178.24,1212.55L2186.93,1211.18C2187.42,1214.66 2188.78,1217.33 2191.01,1219.19C2193.24,1221.04 2196.36,1221.97 2200.36,1221.97C2204.4,1221.97 2207.39,1221.15 2209.34,1219.51C2211.3,1217.86 2212.27,1215.93 2212.27,1213.72C2212.27,1211.73 2211.41,1210.17 2209.68,1209.03C2208.48,1208.25 2205.49,1207.26 2200.7,1206.05C2194.26,1204.43 2189.79,1203.02 2187.3,1201.83C2184.81,1200.64 2182.92,1199 2181.63,1196.9C2180.35,1194.8 2179.7,1192.48 2179.7,1189.94C2179.7,1187.63 2180.23,1185.49 2181.29,1183.52C2182.35,1181.55 2183.79,1179.91 2185.61,1178.61C2186.98,1177.6 2188.84,1176.75 2191.2,1176.05C2193.56,1175.35 2196.1,1175 2198.8,1175C2202.87,1175 2206.44,1175.58 2209.51,1176.76C2212.59,1177.93 2214.86,1179.52 2216.33,1181.52C2217.79,1183.52 2218.8,1186.2 2219.35,1189.55L2210.76,1190.72C2210.37,1188.05 2209.24,1185.97 2207.37,1184.47C2205.49,1182.97 2202.85,1182.23 2199.43,1182.23C2195.39,1182.23 2192.51,1182.89 2190.79,1184.23C2189.06,1185.56 2188.2,1187.12 2188.2,1188.91C2188.2,1190.05 2188.56,1191.08 2189.28,1191.99C2189.99,1192.93 2191.11,1193.72 2192.64,1194.33C2193.52,1194.66 2196.11,1195.41 2200.41,1196.58C2206.63,1198.24 2210.96,1199.6 2213.42,1200.66C2215.88,1201.72 2217.81,1203.25 2219.21,1205.27C2220.61,1207.29 2221.31,1209.8 2221.31,1212.79C2221.31,1215.72 2220.45,1218.48 2218.74,1221.07C2217.03,1223.66 2214.57,1225.66 2211.35,1227.07C2208.12,1228.49 2204.48,1229.2 2200.41,1229.2C2193.67,1229.2 2188.53,1227.8 2185,1225C2181.47,1222.2 2179.22,1218.05 2178.24,1212.55Z" style="fill:rgb(102,102,102);fill-rule:nonzero;"/>
        </g>
    </g>
</svg>
